<?xml version="1.0" encoding="utf-8"?>
<!-- Generator: Adobe Illustrator 15.0.0, SVG Export Plug-In . SVG Version: 6.00 Build 0)  -->
<!DOCTYPE svg PUBLIC "-//W3C//DTD SVG 1.1//EN" "http://www.w3.org/Graphics/SVG/1.1/DTD/svg11.dtd">
<svg version="1.1" id="Laag_1" xmlns="http://www.w3.org/2000/svg" xmlns:xlink="http://www.w3.org/1999/xlink" x="0px" y="0px"
	 width="50px" height="50px" viewBox="0 0 50 50" enable-background="new 0 0 50 50" xml:space="preserve">
<g id="Serbia">
	<path id="_127602832_45_" fill="#FFFFFF" d="M2.115,33.739h45.775c-3.521,9.211-12.438,15.756-22.897,15.756
		C14.558,49.495,5.637,42.95,2.115,33.739z"/>
	<path id="_127603216_17_" fill="#0C4076" d="M2.115,16.261h45.775c1.035,2.718,1.598,5.661,1.598,8.739
		c0,3.081-0.57,6.023-1.598,8.742H2.117C1.079,31.023,0.512,28.081,0.512,25C0.508,21.922,1.079,18.979,2.115,16.261L2.115,16.261z"
		/>
	<path id="_127603600_46_" fill="#C6363C" d="M47.891,16.261H2.115C5.637,7.05,14.558,0.505,25.003,0.505
		C35.452,0.505,44.369,7.05,47.891,16.261z"/>
	<circle fill="#0C4076" stroke="#21231E" stroke-width="0.0601" cx="25" cy="5.485" r="1.022"/>
	<path fill="#EDB92E" stroke="#21231E" stroke-width="0.0601" stroke-linecap="round" d="M26.381,14.743l-1.383,0.691l-1.382-0.691
		l1.382-0.689L26.381,14.743z"/>
	<path fill="#EDB92E" stroke="#21231E" stroke-width="0.0601" stroke-linejoin="round" d="M25,9.755
		c0.054,0,0.108-0.017,0.156,0.013c0.048,0.028,0.098,0.076,0.134,0.137c0.055,0.089,0.033,0.118,0.083,0.144
		c0.061,0.028,0.134,0.041,0.212,0.028c0.312-0.048,0.276,0.141,0.13,0.354c-0.07,0.108-0.233,0.217-0.316,0.306
		c-0.083,0.093-0.093,0.17-0.127,0.195h-0.539c-0.035-0.025-0.042-0.103-0.128-0.195c-0.085-0.089-0.244-0.197-0.319-0.306
		c-0.144-0.214-0.179-0.402,0.135-0.354c0.078,0.013,0.149,0,0.21-0.028c0.048-0.025,0.03-0.055,0.085-0.144
		c0.036-0.061,0.084-0.108,0.132-0.137C24.892,9.738,24.945,9.755,25,9.755"/>
	<path id="g_3_" fill="#21231E" d="M25.096,10.935c0.028-0.217,0.115-0.408,0.265-0.577c-0.172,0.114-0.28,0.31-0.317,0.587
		L25.096,10.935z"/>
	<path fill="#EDB92E" stroke="#21231E" stroke-width="0.0601" stroke-linejoin="round" d="M25.181,3.264
		c0.1,0,0.18-0.083,0.18-0.182s-0.08-0.179-0.18-0.179c0-0.099-0.082-0.179-0.181-0.179c-0.098,0-0.179,0.08-0.179,0.179
		c-0.102,0-0.18,0.08-0.18,0.179s0.079,0.182,0.18,0.182v0.39h-0.332c0-0.1-0.079-0.179-0.178-0.179
		c-0.103,0-0.183,0.079-0.183,0.179c-0.099,0-0.179,0.083-0.179,0.179c0,0.102,0.082,0.182,0.179,0.182
		c0,0.099,0.083,0.179,0.183,0.179c0.099,0,0.178-0.08,0.178-0.179h0.332V5.31h0.36V4.017h0.333c0,0.099,0.078,0.179,0.178,0.179
		c0.102,0,0.181-0.08,0.181-0.179c0.101,0,0.178-0.083,0.178-0.182s-0.079-0.182-0.178-0.182l0,0c0-0.1-0.081-0.179-0.181-0.179
		c-0.101,0-0.178,0.083-0.178,0.179h-0.333V3.264L25.181,3.264z"/>
	<path fill="#EDB92E" stroke="#21231E" stroke-width="0.0601" stroke-linejoin="round" d="M25.181,4.476
		c-0.118-0.019-0.241-0.019-0.362,0V5.5h0.362V4.476z"/>
	<path fill="#EDB92E" stroke="#21231E" stroke-width="0.0601" stroke-linejoin="round" d="M26.01,5.309
		c0.023,0.118,0.023,0.239,0,0.36c-0.673-0.035-1.345-0.035-2.018,0c-0.024-0.121-0.024-0.242,0-0.36
		C24.665,5.276,25.337,5.276,26.01,5.309z"/>
	<path fill="#EDB92E" stroke="#21231E" stroke-width="0.0601" stroke-linejoin="round" d="M31.072,14.025
		c0.238-0.481,0.46-0.846,0.66-1.081c-0.682,0.52-1.043,0.398-1.082-0.361c-0.643,0.881-1.183,0.801-1.623-0.242
		c-0.762,1.081-1.385,1.043-1.863-0.121c-0.803,1.005-1.523,0.963-2.164-0.118c-0.642,1.081-1.362,1.123-2.162,0.118
		c-0.482,1.164-1.104,1.202-1.866,0.121c-0.44,1.043-0.982,1.123-1.623,0.242c-0.039,0.76-0.399,0.881-1.082,0.361
		c0.2,0.235,0.422,0.6,0.662,1.081H31.072z"/>
	<path fill="#EDB92E" stroke="#21231E" stroke-width="0.0601" stroke-linejoin="round" d="M18.929,14.063l0.362,1.866h11.42
		l0.361-1.866L25,13.764L18.929,14.063z"/>
	<path fill="#EDB92E" stroke="#21231E" stroke-width="0.0601" stroke-linejoin="round" d="M31.672,12.322
		c-0.421,1.081-0.781,1.081-0.842,0.121c0.061-0.061,0.048-0.229,0.156-0.156c0.056,0.035,0.141-0.073,0.086-0.121
		c-0.108-0.096-0.24-0.087-0.361,0.035c-0.029-0.183-0.15-0.239-0.302-0.183c-0.06,0.026-0.06,0.15,0,0.147
		c0.12-0.013,0.091,0.096,0.12,0.156c-0.803,1.001-1.141,0.86-1.022-0.421l-0.6-0.122c-0.683,1.362-1.202,1.423-1.563,0.179
		c0.063-0.057,0.063-0.204,0.184-0.156c0.057,0.025,0.115-0.083,0.046-0.144c-0.146-0.118-0.29-0.061-0.41,0.061
		c-0.06-0.179-0.235-0.227-0.396-0.121c-0.072,0.048-0.024,0.176,0.047,0.156c0.146-0.035,0.078,0.147,0.17,0.204
		c-0.301,1.203-1.863,1.264-1.594-0.479h-0.781c0.269,1.742-1.295,1.685-1.595,0.479c0.093-0.057,0.025-0.239,0.169-0.204
		c0.07,0.02,0.121-0.104,0.048-0.156c-0.162-0.105-0.338-0.061-0.396,0.121c-0.121-0.121-0.265-0.179-0.411-0.061
		c-0.07,0.061-0.011,0.169,0.048,0.144c0.121-0.048,0.121,0.1,0.182,0.156c-0.36,1.244-0.882,1.184-1.563-0.179L20.489,11.9
		c0.12,1.281-0.222,1.422-1.022,0.421c0.032-0.061,0-0.169,0.118-0.156c0.061,0.003,0.061-0.121,0-0.147
		c-0.149-0.061-0.268,0-0.3,0.183c-0.121-0.122-0.252-0.131-0.36-0.035c-0.054,0.048,0.029,0.156,0.083,0.121
		c0.108-0.073,0.099,0.096,0.156,0.156c-0.058,0.96-0.421,0.96-0.84-0.121l-0.238,0.061c0,0.239,0.091,0.542,0.241,0.721
		c0.601,0.724,1.081,0.603,1.111-0.3c0.813,0.96,1.472,0.842,1.595-0.182c0.66,1.323,1.802,0.663,1.832-0.121
		c0.33,1.142,2.015,1.142,2.136-0.179c0.121,1.323,1.802,1.323,2.138,0.179c0.028,0.784,1.17,1.444,1.83,0.121
		c0.121,1.021,0.783,1.142,1.596,0.182c0.031,0.902,0.51,1.021,1.112,0.3c0.149-0.179,0.239-0.479,0.239-0.721L31.672,12.322z"/>
	<path fill="#EDB92E" stroke="#21231E" stroke-width="0.0601" stroke-linejoin="round" d="M18.929,14.232
		c-0.301,0.032-0.301-0.271,0-0.3c4.049-0.405,8.094-0.405,12.144,0c0.302,0.032,0.302,0.332,0,0.3
		C27.023,13.83,22.978,13.83,18.929,14.232z"/>
	<path fill="#EDB92E" stroke="#21231E" stroke-width="0.0601" stroke-linejoin="round" d="M24.4,10.146l-0.423-0.542
		c0.12-1.161,0.12-2.223,0-3.187c-0.079-0.28,0-0.36,0.241-0.239c0.52,0.262,1.041,0.262,1.563,0
		c0.236-0.121,0.318-0.041,0.236,0.239c-0.115,0.964-0.115,2.025,0,3.187L25.6,10.146H24.4L24.4,10.146z"/>
	<g>
		<path fill="#EDB92E" stroke="#21231E" stroke-width="0.0601" stroke-linejoin="round" d="M30.993,7.71l1.661,0.781l0.179,0.725
			l-0.653,1.021l0.062,0.842h0.532l0.89-2.405l-1.13-0.964l-2.612-0.899L30.993,7.71"/>
		<path fill="#EDB92E" stroke="#21231E" stroke-width="0.0601" stroke-linejoin="round" d="M32.294,10.992
			c0.032-0.096,0.056-0.195,0.069-0.284c0.035-0.163,0.021-0.332-0.032-0.488c0.177-0.255,0.375-0.529,0.519-0.804
			c0.103-0.194,0.18-0.411,0.117-0.631c-0.061-0.239-0.265-0.402-0.445-0.543c-0.221-0.172-0.513-0.321-0.808-0.449
			c-0.663-0.28-1.188-0.415-1.575-0.428l0.242,0.229C31.1,7.831,31.95,8.141,32.354,8.46c0.528,0.411,0.517,0.51-0.252,1.61
			c-0.021,0.032-0.076,0.118-0.057,0.159c0.035,0.08,0.104,0.443-0.01,0.692C32.104,11.046,32.198,10.982,32.294,10.992
			L32.294,10.992z"/>
		<path fill="#EDB92E" stroke="#21231E" stroke-width="0.0601" stroke-linejoin="round" d="M27.277,10.307
			c-0.204-0.017-0.156,0.354-0.113,0.434c0.054,0.108,0.104,0.111,0.171,0.013C27.387,10.68,27.484,10.319,27.277,10.307z"/>
		<path fill="#EDB92E" stroke="#21231E" stroke-width="0.0601" stroke-linejoin="round" d="M31.154,10.826
			c-0.194-0.063-0.234,0.306-0.213,0.396c0.025,0.118,0.07,0.131,0.16,0.051C31.17,11.212,31.352,10.89,31.154,10.826z"/>
	</g>
	<g>
		<circle fill="#FFFFFF" stroke="#21231E" stroke-width="0.0601" stroke-linejoin="round" cx="30.229" cy="6.87" r="0.384"/>
		<circle fill="#FFFFFF" stroke="#21231E" stroke-width="0.0601" stroke-linejoin="round" cx="30.951" cy="7.11" r="0.386"/>
		<circle fill="#FFFFFF" stroke="#21231E" stroke-width="0.0601" stroke-linejoin="round" cx="31.672" cy="7.351" r="0.384"/>
		<circle fill="#FFFFFF" stroke="#21231E" stroke-width="0.0601" stroke-linejoin="round" cx="32.395" cy="7.681" r="0.386"/>
		<circle fill="#FFFFFF" stroke="#21231E" stroke-width="0.0601" stroke-linejoin="round" cx="33.055" cy="8.072" r="0.384"/>
		<path fill="#FFFFFF" stroke="#21231E" stroke-width="0.0601" stroke-linejoin="round" d="M32.755,10.393
			c0.212,0,0.386,0.172,0.386,0.386c0,0.21-0.174,0.386-0.386,0.386s-0.384-0.176-0.384-0.386
			C32.371,10.564,32.543,10.393,32.755,10.393z"/>
		<circle fill="#FFFFFF" stroke="#21231E" stroke-width="0.0601" stroke-linejoin="round" cx="33.117" cy="10.117" r="0.384"/>
		<circle fill="#FFFFFF" stroke="#21231E" stroke-width="0.0601" stroke-linejoin="round" cx="33.415" cy="9.455" r="0.386"/>
		<circle fill="#FFFFFF" stroke="#21231E" stroke-width="0.0601" stroke-linejoin="round" cx="33.535" cy="8.673" r="0.386"/>
		<circle fill="#FFFFFF" stroke="#21231E" stroke-width="0.0601" stroke-linejoin="round" cx="26.441" cy="15.226" r="0.193"/>
		<circle fill="#FFFFFF" stroke="#21231E" stroke-width="0.0601" stroke-linejoin="round" cx="29.389" cy="15.405" r="0.193"/>
		<circle fill="#FFFFFF" stroke="#21231E" stroke-width="0.0601" stroke-linejoin="round" cx="29.51" cy="14.505" r="0.193"/>
		<circle fill="#FFFFFF" stroke="#21231E" stroke-width="0.0601" stroke-linejoin="round" cx="26.502" cy="14.323" r="0.193"/>
		<path fill="#FFFFFF" stroke="#21231E" stroke-width="0.0601" stroke-linejoin="round" d="M27.393,11.56
			c0.121-0.182,0.352-1.023-0.131-1.053c-0.482-0.031-0.361,0.839-0.271,1.021C27.109,11.771,27.234,11.793,27.393,11.56z"/>
		<path fill="#FFFFFF" stroke="#21231E" stroke-width="0.0601" stroke-linejoin="round" d="M30.598,11.949
			c0.062,0.271,0.162,0.309,0.379,0.114c0.164-0.144,0.582-0.896,0.121-1.046C30.633,10.867,30.548,11.731,30.598,11.949z"/>
	</g>
	<g>
		<path fill="#EDB92E" stroke="#21231E" stroke-width="0.0601" stroke-linejoin="round" d="M25.963,6.568l2.104,0.061l1.322,0.421
			l0.362,0.842l-0.962,1.866l0.419,1.202l1.263-1.084l0.603-2.224L29.45,6.268L26.02,6.029L25.963,6.568z"/>
		<path fill="#EDB92E" stroke="#21231E" stroke-width="0.0601" stroke-linejoin="round" d="M26.068,6.438
			c1.037-0.096,2.096,0.01,3.145,0.431c0.885,0.354,0.799,1.388-0.277,2.819c0.097,0.182,0.15,0.405,0.16,0.667
			c-0.111-0.007-0.195-0.004-0.296-0.007c0.078-0.172-0.009-0.386-0.106-0.536c-0.063-0.099-0.075-0.079,0-0.188
			c0.644-0.903,1.065-1.69,0.816-2.169c-0.305-0.577-1.482-0.881-3.47-0.836c0.003-0.051,0.006-0.105,0.013-0.159
			C26.059,6.45,26.063,6.443,26.068,6.438L26.068,6.438z"/>
		<path fill="#EDB92E" stroke="#21231E" stroke-width="0.0601" stroke-linejoin="round" d="M30.277,6.811
			c-0.034,0.048-0.072,0.096-0.11,0.146c0.584,0.322,0.826,0.664,0.769,1.005c-0.01,0.061-0.188,0.686-0.582,1.897
			c-0.271,0.186-0.472,0.357-0.605,0.504c0.018,0.02-0.039,0.07-0.023,0.086c-0.041,0.186,0.166,0.147,0.307,0.103
			c0.066-0.179,0.271-0.367,0.388-0.446c0.024-0.017,0.11-0.061,0.12-0.086c0.21-0.683,0.426-1.314,0.605-1.901
			C31.328,7.525,30.93,7.107,30.277,6.811L30.277,6.811z"/>
	</g>
	<g>
		<circle fill="#FFFFFF" stroke="#21231E" stroke-width="0.0601" stroke-linejoin="round" cx="26.323" cy="5.969" r="0.386"/>
		<circle fill="#FFFFFF" stroke="#21231E" stroke-width="0.0601" stroke-linejoin="round" cx="27.073" cy="5.969" r="0.386"/>
		<circle fill="#FFFFFF" stroke="#21231E" stroke-width="0.0601" stroke-linejoin="round" cx="27.826" cy="6.058" r="0.383"/>
		<circle fill="#FFFFFF" stroke="#21231E" stroke-width="0.0601" stroke-linejoin="round" cx="28.547" cy="6.208" r="0.386"/>
		<circle fill="#FFFFFF" stroke="#21231E" stroke-width="0.0601" stroke-linejoin="round" cx="29.268" cy="6.449" r="0.384"/>
		<circle fill="#FFFFFF" stroke="#21231E" stroke-width="0.0601" stroke-linejoin="round" cx="29.928" cy="6.749" r="0.384"/>
		<circle fill="#FFFFFF" stroke="#21231E" stroke-width="0.0601" stroke-linejoin="round" cx="30.352" cy="7.231" r="0.386"/>
		<circle fill="#FFFFFF" stroke="#21231E" stroke-width="0.0601" stroke-linejoin="round" cx="29.57" cy="9.996" r="0.384"/>
		<circle fill="#FFFFFF" stroke="#21231E" stroke-width="0.0601" stroke-linejoin="round" cx="29.87" cy="9.333" r="0.386"/>
		<circle fill="#FFFFFF" stroke="#21231E" stroke-width="0.0601" stroke-linejoin="round" cx="30.17" cy="8.673" r="0.386"/>
		<circle fill="#FFFFFF" stroke="#21231E" stroke-width="0.0601" stroke-linejoin="round" cx="30.409" cy="7.952" r="0.383"/>
	</g>
	<g>
		<path fill="#EDB92E" stroke="#21231E" stroke-width="0.0601" stroke-linejoin="round" d="M32.454,11.196l0.021,0.121
			c0.166,0.038,0.311,0.048,0.432,0.028C32.709,11.148,32.559,11.106,32.454,11.196z"/>
		<path fill="#EDB92E" stroke="#21231E" stroke-width="0.0601" stroke-linejoin="round" d="M32.516,10.915
			c-0.107,0.025-0.117,0.045-0.166,0.052c-0.059,0.009-0.142,0.006-0.199-0.045c-0.229-0.138-0.233,0.111-0.145,0.303
			c0.064,0.134,0.126,0.31,0.063,0.428c-0.073,0.137-0.057,0.201-0.006,0.235c0.035,0.026,0.069,0.048,0.102,0.067
			c0.064,0.073,0.109,0.061,0.118-0.035c0.229-0.099,0.214-0.341,0.284-0.536C32.666,11.098,33.034,11.03,32.516,10.915
			L32.516,10.915z"/>
		<path fill="#EDB92E" stroke="#21231E" stroke-width="0.0601" stroke-linejoin="round" d="M32.395,10.928
			c-0.201,0.07-0.225-0.041-0.357-0.035c0.051,0.31,0.105,0.473,0.427,0.304c0.177-0.09,0.404,0.044,0.443,0.14
			c0.017,0.039,0.12-0.038,0.155-0.121C33.223,10.871,32.663,10.829,32.395,10.928z"/>
		<path fill="#EDB92E" stroke="#21231E" stroke-width="0.0601" stroke-linejoin="round" d="M31.686,12.424
			c-0.144-0.045-0.373,0.277-0.428,0.271c-0.072-0.182,0.076-0.625,0.333-0.977c0.175-0.057,0.191-0.172,0.229-0.434
			c0.009-0.079,0.16-0.025,0.164,0.108c0.002,0.144,0.015,0.224-0.019,0.345c-0.013,0.051-0.007,0.096,0.048,0.141
			C31.736,11.99,31.672,12.121,31.686,12.424L31.686,12.424z"/>
		<path fill="#EDB92E" stroke="#21231E" stroke-width="0.0601" stroke-linejoin="round" d="M31.818,11.288
			c0.025,0.062,0.031,0.112,0.035,0.204c0.006,0.07-0.02,0.135-0.064,0.191c-0.043,0.061-0.107,0.112-0.178,0.153
			c-0.049,0.025-0.1,0.099-0.137,0.179c-0.041,0.08-0.07,0.172-0.07,0.239c-0.008,0.214-0.049,0.402-0.148,0.44
			c-0.063,0.025-0.089,0.019-0.139,0.006c0.017-0.038,0.01-0.092,0.043-0.146c0.043-0.066,0.085-0.146,0.088-0.217
			c0.003-0.058,0.027-0.093,0.008-0.197c-0.014-0.07-0.059-0.096-0.053-0.16c0.02-0.124,0.113-0.363,0.257-0.363
			c0.142,0,0.206-0.016,0.278-0.204C31.762,11.35,31.795,11.32,31.818,11.288L31.818,11.288z"/>
		<path fill="#EDB92E" stroke="#21231E" stroke-width="0.0601" stroke-linejoin="round" d="M32.346,11.806
			c-0.039-0.029-0.082-0.052-0.128-0.07c-0.073-0.029-0.153-0.032-0.229-0.01c-0.338,0.102-0.485,0.701-0.115,0.845
			c0.072,0.01,0.141-0.054,0.208-0.2c0.076-0.191,0.159-0.322,0.243-0.408C32.377,11.895,32.38,11.84,32.346,11.806L32.346,11.806z"
			/>
		<path fill="#EDB92E" stroke="#21231E" stroke-width="0.0601" stroke-linejoin="round" d="M32.176,11.84
			c-0.32-0.124-0.561,0.495-0.258,0.613c0.163,0.063,0.18-0.141,0.209-0.252C32.17,12.048,32.488,11.962,32.176,11.84z"/>
		<path fill="#EDB92E" stroke="#21231E" stroke-width="0.0601" stroke-linejoin="round" d="M25.463,10.055
			c0.162-0.3,0.334-0.495,0.518-0.578c-0.252-0.791-0.311-1.814-0.166-3.071c0.019-0.188,0.063-0.271,0.136-0.268
			c0.062,0,0.101,0.096,0.106,0.313c-0.047,0.692-0.103,1.298-0.07,1.812c0.029,0.463,0.134,0.842,0.252,1.272
			c0.02,0.061-0.023,0.105-0.231,0.224c-0.151,0.086-0.247,0.194-0.28,0.306c-0.045-0.019-0.072-0.013-0.09-0.009
			C25.488,10.099,25.424,10.086,25.463,10.055L25.463,10.055z"/>
		<path fill="#EDB92E" stroke="#21231E" stroke-width="0.0601" stroke-linejoin="round" d="M26.424,11.053
			c-0.094-0.061-0.113-0.045-0.142-0.08c-0.038-0.051-0.038-0.134-0.029-0.21c0.052-0.319-0.14-0.274-0.354-0.135
			c-0.104,0.07-0.213,0.233-0.307,0.316c-0.092,0.086-0.165,0.096-0.189,0.127C25.4,11.193,25.4,11.298,25.4,11.346
			c0,0.048,0,0.153,0.003,0.274c0.024,0.035,0.101,0.042,0.189,0.128c0.094,0.086,0.2,0.249,0.307,0.315
			c0.215,0.141,0.406,0.188,0.354-0.131c-0.013-0.079-0.013-0.162,0.029-0.21c0.028-0.039,0.048-0.022,0.142-0.083
			c0.061-0.038,0.107-0.083,0.139-0.134c0.033-0.052,0.014-0.105,0.014-0.16c0-0.054,0.02-0.108-0.014-0.159
			C26.531,11.139,26.484,11.091,26.424,11.053L26.424,11.053z"/>
		<path fill="#EDB92E" stroke="#21231E" stroke-width="0.0601" stroke-linejoin="round" d="M26.264,10.615
			c-0.07,0.029-0.145,0.058-0.207,0.118c-0.097,0.096-0.035,0.249,0.088,0.398c0.039,0.048,0.063,0.131,0.061,0.214
			c0,0.086-0.021,0.169-0.061,0.214c-0.121,0.15-0.185,0.307-0.088,0.398c0.061,0.061,0.137,0.093,0.207,0.121
			c0.006-0.034,0.004-0.082-0.007-0.144c-0.01-0.079-0.01-0.162,0.03-0.21c0.029-0.038,0.048-0.022,0.143-0.083
			c0.061-0.038,0.106-0.083,0.137-0.134c0.031-0.051,0.017-0.105,0.017-0.159c0-0.055,0.017-0.109-0.017-0.16
			c-0.029-0.051-0.076-0.096-0.137-0.134c-0.095-0.061-0.111-0.045-0.143-0.083c-0.04-0.048-0.04-0.131-0.03-0.21
			C26.268,10.698,26.27,10.65,26.264,10.615L26.264,10.615z"/>
		<path fill="#EDB92E" stroke="#21231E" stroke-width="0.0601" stroke-linejoin="round" d="M29.293,10.176
			c-0.08,0.102-0.07,0.127-0.115,0.156c-0.054,0.038-0.13,0.025-0.203-0.004c-0.291-0.108-0.291,0.121-0.207,0.39
			c0.041,0.128,0.168,0.268,0.224,0.376c0.051,0.108,0.041,0.188,0.065,0.217c0.105,0.017,0.195,0.029,0.239,0.032
			c0.038,0.007,0.128,0.02,0.233,0.032c0.035-0.022,0.061-0.1,0.156-0.182c0.099-0.083,0.266-0.176,0.356-0.278
			c0.183-0.207,0.28-0.408-0.009-0.401c-0.073,0-0.145-0.013-0.178-0.064c-0.026-0.038-0.006-0.061-0.031-0.175
			c-0.016-0.077-0.045-0.138-0.081-0.182c-0.036-0.045-0.091-0.035-0.142-0.045c-0.049-0.01-0.097-0.038-0.15-0.013
			C29.398,10.063,29.344,10.108,29.293,10.176L29.293,10.176z"/>
		<path fill="#EDB92E" stroke="#21231E" stroke-width="0.0601" stroke-linejoin="round" d="M28.834,10.297
			c0.014,0.083,0.023,0.179,0.063,0.258c0.067,0.125,0.225,0.077,0.392-0.041c0.053-0.038,0.134-0.048,0.209-0.032
			c0.076,0.013,0.144,0.045,0.172,0.096c0.097,0.159,0.213,0.249,0.319,0.156c0.07-0.058,0.121-0.137,0.166-0.207
			c-0.029-0.013-0.07-0.02-0.127-0.02c-0.069,0.004-0.143-0.009-0.174-0.063c-0.026-0.038-0.006-0.058-0.031-0.172
			c-0.016-0.08-0.045-0.141-0.081-0.186c-0.037-0.045-0.091-0.035-0.14-0.045c-0.051-0.006-0.096-0.034-0.152-0.009
			c-0.055,0.028-0.11,0.073-0.163,0.14c-0.081,0.103-0.069,0.125-0.111,0.153c-0.058,0.038-0.137,0.025-0.207-0.003
			C28.917,10.303,28.87,10.293,28.834,10.297L28.834,10.297z"/>
		<path fill="#EDB92E" stroke="#21231E" stroke-width="0.0601" stroke-linejoin="round" d="M30.434,11.451
			c-0.047-0.058-0.064-0.045-0.072-0.08c-0.01-0.048,0.017-0.117,0.052-0.188c0.139-0.274-0.009-0.252-0.21-0.141
			c-0.053,0.025-0.111,0.076-0.174,0.128c-0.057,0.051-0.116,0.102-0.164,0.137c-0.104,0.073-0.166,0.076-0.193,0.103
			c-0.043,0.111-0.081,0.207-0.098,0.252c-0.018,0.044-0.055,0.14-0.094,0.252c0.008,0.031,0.063,0.038,0.105,0.117
			c0.042,0.08,0.077,0.221,0.128,0.291c0.076,0.099,0.146,0.159,0.201,0.149c0.053-0.01,0.091-0.089,0.104-0.265
			c0.006-0.066,0.041-0.141,0.09-0.182c0.035-0.035,0.041-0.02,0.127-0.07c0.059-0.028,0.103-0.067,0.145-0.111
			c0.036-0.042,0.041-0.09,0.059-0.134c0.019-0.048,0.049-0.093,0.043-0.138C30.477,11.527,30.464,11.486,30.434,11.451
			L30.434,11.451z"/>
		<path fill="#EDB92E" stroke="#21231E" stroke-width="0.0601" stroke-linejoin="round" d="M30.46,11.005
			c-0.062,0.022-0.103,0.051-0.17,0.105c-0.054,0.044-0.082,0.104-0.091,0.178c-0.01,0.07-0.004,0.153,0.017,0.233
			c0.015,0.051-0.001,0.137-0.032,0.22s-0.074,0.166-0.119,0.211c-0.146,0.146-0.246,0.303-0.207,0.398
			c0.027,0.063,0.049,0.08,0.091,0.108c0.017-0.035,0.059-0.07,0.073-0.131c0.019-0.076,0.047-0.162,0.096-0.207
			c0.033-0.038,0.043-0.083,0.134-0.138c0.056-0.038,0.104-0.021,0.146-0.069c0.074-0.093,0.174-0.322,0.076-0.428
			c-0.097-0.103-0.129-0.163-0.048-0.342C30.451,11.088,30.451,11.043,30.46,11.005L30.46,11.005z"/>
		<path fill="#EDB92E" stroke="#21231E" stroke-width="0.0601" stroke-linejoin="round" d="M27.891,11.751
			c0.077,0.063,0.098,0.055,0.117,0.093c0.028,0.051,0.016,0.131-0.01,0.201c-0.094,0.286,0.083,0.261,0.293,0.152
			c0.104-0.054,0.227-0.194,0.318-0.265c0.097-0.066,0.164-0.066,0.188-0.096c0.027-0.114,0.046-0.214,0.059-0.258
			c0.01-0.045,0.029-0.147,0.053-0.265c-0.014-0.035-0.08-0.055-0.145-0.147c-0.063-0.099-0.131-0.28-0.214-0.37
			c-0.174-0.178-0.348-0.258-0.358,0.09c-0.002,0.083-0.017,0.169-0.061,0.217c-0.033,0.035-0.05,0.016-0.148,0.067
			c-0.064,0.031-0.114,0.073-0.152,0.121c-0.038,0.044-0.028,0.102-0.035,0.156c-0.011,0.054-0.035,0.105-0.013,0.159
			C27.807,11.658,27.84,11.706,27.891,11.751L27.891,11.751z"/>
		<path fill="#EDB92E" stroke="#21231E" stroke-width="0.0601" stroke-linejoin="round" d="M27.977,12.179
			c0.064-0.022,0.135-0.042,0.2-0.093c0.103-0.076,0.071-0.227-0.016-0.38c-0.026-0.051-0.03-0.134-0.017-0.217
			c0.017-0.083,0.047-0.162,0.09-0.204c0.144-0.137,0.228-0.287,0.156-0.396c-0.049-0.073-0.113-0.118-0.174-0.159
			c-0.009,0.038-0.021,0.089-0.021,0.156c-0.002,0.083-0.018,0.169-0.062,0.214c-0.034,0.035-0.051,0.019-0.149,0.066
			c-0.063,0.032-0.114,0.073-0.15,0.121c-0.037,0.045-0.029,0.103-0.037,0.157c-0.01,0.054-0.033,0.104-0.011,0.159
			c0.021,0.051,0.056,0.102,0.106,0.144c0.076,0.066,0.094,0.054,0.117,0.096c0.025,0.048,0.014,0.127-0.013,0.201
			C27.982,12.099,27.977,12.144,27.977,12.179L27.977,12.179z"/>
	</g>
	<g>
		<path fill="#EDB92E" stroke="#21231E" stroke-width="0.0601" stroke-linecap="round" d="M29.406,14.931l-1.322-0.774l-1.406,0.608
			l1.323,0.77L29.406,14.931z"/>
		<path fill="#EDB92E" stroke="#21231E" stroke-width="0.0601" stroke-linecap="round" d="M30.999,14.379l-1.429,0.564l1.182,0.772
			c0.305-0.103,0.547-1.148,0.247-1.34V14.379z"/>
	</g>
	<g>
		<path fill="#21231E" d="M25.403,11.445c0.216,0.025,0.408,0.111,0.576,0.258c-0.115-0.169-0.309-0.274-0.581-0.313L25.403,11.445z
			"/>
		<path fill="#21231E" d="M25.403,11.24c0.216-0.028,0.408-0.114,0.576-0.261c-0.115,0.169-0.309,0.274-0.581,0.313L25.403,11.24z"
			/>
		<path fill="#21231E" d="M32.195,11.729c0.09-0.124,0.115-0.252,0.078-0.379c0.084,0.104,0.072,0.235-0.033,0.395L32.195,11.729z"
			/>
		<path fill="#21231E" d="M29.382,11.343c0.08-0.22,0.204-0.415,0.377-0.577c-0.179,0.099-0.321,0.29-0.426,0.577H29.382z"/>
		<path fill="#21231E" d="M29.207,11.317c0.031-0.229-0.003-0.45-0.096-0.654c0.123,0.15,0.171,0.37,0.137,0.667L29.207,11.317z"/>
		<path fill="#21231E" d="M29.532,11.799c0.163,0.045,0.284,0.141,0.362,0.293c-0.041-0.178-0.158-0.296-0.351-0.348L29.532,11.799z
			"/>
		<path fill="#21231E" d="M29.604,11.595c0.19-0.02,0.375-0.099,0.555-0.232c-0.166,0.165-0.357,0.261-0.577,0.287L29.604,11.595z"
			/>
		<path fill="#21231E" d="M28.863,11.479c-0.184-0.048-0.34-0.156-0.467-0.325c0.069,0.186,0.227,0.31,0.463,0.38L28.863,11.479z"/>
		<path fill="#21231E" d="M28.824,11.675c-0.191,0.003-0.376,0.066-0.553,0.191c0.129-0.15,0.32-0.233,0.567-0.239L28.824,11.675z"
			/>
	</g>
	
		<ellipse transform="matrix(-0.0719 0.9974 -0.9974 -0.0719 44.8501 -12.0603)" fill="#C6363C" stroke="#21231E" stroke-width="0.0601" cx="28.036" cy="14.836" rx="0.421" ry="0.603"/>
	<path fill="#EDB92E" stroke="#21231E" stroke-width="0.0601" stroke-linejoin="round" d="M29.307,11.167
		c-0.242-0.009-0.477,0.201-0.513,0.46c-0.037,0.258,0.136,0.459,0.368,0.462c0.23,0,0.445-0.188,0.49-0.437
		C29.695,11.403,29.545,11.18,29.307,11.167L29.307,11.167z"/>
	<path fill="#EDB92E" stroke="#21231E" stroke-width="0.0601" stroke-linejoin="round" d="M29.286,11.295
		c-0.179-0.007-0.349,0.144-0.373,0.335c-0.024,0.188,0.096,0.341,0.269,0.341c0.17,0.004,0.332-0.14,0.363-0.321
		C29.577,11.461,29.462,11.302,29.286,11.295L29.286,11.295z"/>
	<g>
		<path fill="#0C4076" stroke="#21231E" stroke-width="0.0601" d="M32.143,11.936c-0.158-0.063-0.377,0.31-0.177,0.393
			c0.132,0.058,0.237-0.016,0.28-0.131C32.288,12.086,32.251,11.98,32.143,11.936z"/>
		<path fill="#0C4076" stroke="#21231E" stroke-width="0.0601" d="M30.951,14.625c-0.344-0.035-0.631,0.121-0.655,0.348
			c-0.022,0.227,0.233,0.434,0.576,0.469c0.229,0.025,0.356-0.118,0.379-0.348C31.275,14.864,31.18,14.647,30.951,14.625z"/>
		<path fill="#0C4076" stroke="#21231E" stroke-width="0.0601" d="M29.268,11.419c-0.107-0.003-0.216,0.093-0.232,0.211
			c-0.02,0.118,0.058,0.214,0.168,0.217c0.105,0.003,0.21-0.089,0.23-0.204C29.452,11.527,29.379,11.426,29.268,11.419z"/>
	</g>
	<g id="a_7_">
		<g>
			<path fill="#EDB92E" stroke="#21231E" stroke-width="0.0601" stroke-linejoin="round" d="M19.006,7.71l-1.66,0.781l-0.179,0.725
				l0.653,1.021l-0.059,0.842h-0.534l-0.89-2.405l1.129-0.963l2.61-0.899L19.006,7.71"/>
			<path fill="#EDB92E" stroke="#21231E" stroke-width="0.0601" stroke-linejoin="round" d="M17.707,10.992
				c-0.033-0.096-0.058-0.195-0.073-0.284c-0.033-0.163-0.018-0.332,0.033-0.488c-0.175-0.255-0.373-0.529-0.515-0.804
				c-0.104-0.194-0.182-0.411-0.121-0.631c0.063-0.239,0.267-0.402,0.448-0.543c0.22-0.172,0.512-0.321,0.807-0.449
				c0.663-0.28,1.191-0.415,1.575-0.428l-0.243,0.229c-0.717,0.236-1.566,0.546-1.975,0.865c-0.528,0.411-0.512,0.51,0.252,1.61
				c0.023,0.032,0.078,0.118,0.059,0.159c-0.035,0.08-0.104,0.443,0.009,0.692C17.897,11.046,17.802,10.982,17.707,10.992
				L17.707,10.992z"/>
			<path fill="#EDB92E" stroke="#21231E" stroke-width="0.0601" stroke-linejoin="round" d="M22.723,10.307
				c0.204-0.017,0.154,0.354,0.111,0.434c-0.054,0.108-0.102,0.111-0.169,0.013C22.616,10.68,22.516,10.319,22.723,10.307z"/>
			<path fill="#EDB92E" stroke="#21231E" stroke-width="0.0601" stroke-linejoin="round" d="M18.845,10.826
				c0.194-0.063,0.232,0.306,0.213,0.396c-0.025,0.118-0.073,0.131-0.162,0.051C18.828,11.212,18.648,10.89,18.845,10.826z"/>
		</g>
		<g>
			<circle fill="#FFFFFF" stroke="#21231E" stroke-width="0.0601" stroke-linejoin="round" cx="19.77" cy="6.87" r="0.384"/>
			<circle fill="#FFFFFF" stroke="#21231E" stroke-width="0.0601" stroke-linejoin="round" cx="19.049" cy="7.11" r="0.386"/>
			<circle fill="#FFFFFF" stroke="#21231E" stroke-width="0.0601" stroke-linejoin="round" cx="18.327" cy="7.351" r="0.384"/>
			<circle fill="#FFFFFF" stroke="#21231E" stroke-width="0.0601" stroke-linejoin="round" cx="17.604" cy="7.681" r="0.386"/>
			<circle fill="#FFFFFF" stroke="#21231E" stroke-width="0.0601" stroke-linejoin="round" cx="16.945" cy="8.072" r="0.384"/>
			<path fill="#FFFFFF" stroke="#21231E" stroke-width="0.0601" stroke-linejoin="round" d="M17.245,10.393
				c0.212,0,0.386,0.172,0.386,0.386c0,0.21-0.174,0.386-0.386,0.386c-0.213,0-0.385-0.176-0.385-0.386
				C16.86,10.564,17.032,10.393,17.245,10.393z"/>
			<circle fill="#FFFFFF" stroke="#21231E" stroke-width="0.0601" stroke-linejoin="round" cx="16.885" cy="10.117" r="0.384"/>
			<circle fill="#FFFFFF" stroke="#21231E" stroke-width="0.0601" stroke-linejoin="round" cx="16.583" cy="9.455" r="0.386"/>
			<circle fill="#FFFFFF" stroke="#21231E" stroke-width="0.0601" stroke-linejoin="round" cx="16.464" cy="8.673" r="0.386"/>
			<circle fill="#FFFFFF" stroke="#21231E" stroke-width="0.0601" stroke-linejoin="round" cx="23.559" cy="15.226" r="0.193"/>
			<circle fill="#FFFFFF" stroke="#21231E" stroke-width="0.0601" stroke-linejoin="round" cx="20.611" cy="15.405" r="0.193"/>
			<circle fill="#FFFFFF" stroke="#21231E" stroke-width="0.0601" stroke-linejoin="round" cx="20.491" cy="14.505" r="0.193"/>
			<circle fill="#FFFFFF" stroke="#21231E" stroke-width="0.0601" stroke-linejoin="round" cx="23.498" cy="14.323" r="0.193"/>
			<path fill="#FFFFFF" stroke="#21231E" stroke-width="0.0601" stroke-linejoin="round" d="M22.607,11.56
				c-0.121-0.182-0.349-1.023,0.133-1.053c0.48-0.031,0.362,0.839,0.27,1.021C22.89,11.771,22.765,11.793,22.607,11.56z"/>
			<path fill="#FFFFFF" stroke="#21231E" stroke-width="0.0601" stroke-linejoin="round" d="M19.402,11.949
				c-0.059,0.271-0.162,0.309-0.376,0.114c-0.164-0.144-0.584-0.896-0.121-1.046C19.367,10.867,19.45,11.731,19.402,11.949z"/>
		</g>
		<g>
			<path fill="#EDB92E" stroke="#21231E" stroke-width="0.0601" stroke-linejoin="round" d="M24.037,6.568l-2.103,0.061L20.611,7.05
				l-0.36,0.842l0.963,1.866l-0.421,1.202l-1.262-1.084L18.93,7.652l1.623-1.384l3.424-0.239L24.037,6.568z"/>
			<path fill="#EDB92E" stroke="#21231E" stroke-width="0.0601" stroke-linejoin="round" d="M23.932,6.438
				c-1.037-0.096-2.096,0.01-3.145,0.431c-0.884,0.354-0.798,1.388,0.28,2.819c-0.098,0.182-0.153,0.405-0.163,0.667
				c0.112-0.007,0.195-0.004,0.297-0.007c-0.079-0.172,0.01-0.386,0.107-0.536c0.063-0.099,0.076-0.079,0-0.188
				c-0.644-0.903-1.067-1.69-0.818-2.169c0.306-0.577,1.483-0.881,3.47-0.836c-0.003-0.051-0.008-0.105-0.011-0.159
				C23.941,6.45,23.938,6.443,23.932,6.438L23.932,6.438z"/>
			<path fill="#EDB92E" stroke="#21231E" stroke-width="0.0601" stroke-linejoin="round" d="M19.722,6.811
				c0.035,0.048,0.073,0.096,0.108,0.146c-0.581,0.322-0.824,0.664-0.768,1.005c0.01,0.061,0.187,0.686,0.582,1.897
				c0.271,0.186,0.473,0.357,0.606,0.504c-0.016,0.02,0.041,0.07,0.027,0.086c0.039,0.186-0.168,0.147-0.309,0.103
				c-0.066-0.179-0.271-0.367-0.389-0.446c-0.023-0.017-0.108-0.061-0.116-0.086c-0.216-0.683-0.426-1.314-0.607-1.901
				C18.674,7.525,19.07,7.107,19.722,6.811L19.722,6.811z"/>
		</g>
		<g>
			<circle fill="#FFFFFF" stroke="#21231E" stroke-width="0.0601" stroke-linejoin="round" cx="23.677" cy="5.969" r="0.386"/>
			<circle fill="#FFFFFF" stroke="#21231E" stroke-width="0.0601" stroke-linejoin="round" cx="22.924" cy="5.969" r="0.386"/>
			<circle fill="#FFFFFF" stroke="#21231E" stroke-width="0.0601" stroke-linejoin="round" cx="22.174" cy="6.058" r="0.383"/>
			<circle fill="#FFFFFF" stroke="#21231E" stroke-width="0.0601" stroke-linejoin="round" cx="21.453" cy="6.208" r="0.386"/>
			<circle fill="#FFFFFF" stroke="#21231E" stroke-width="0.0601" stroke-linejoin="round" cx="20.732" cy="6.449" r="0.384"/>
			<circle fill="#FFFFFF" stroke="#21231E" stroke-width="0.0601" stroke-linejoin="round" cx="20.07" cy="6.749" r="0.384"/>
			<circle fill="#FFFFFF" stroke="#21231E" stroke-width="0.0601" stroke-linejoin="round" cx="19.648" cy="7.231" r="0.386"/>
			<circle fill="#FFFFFF" stroke="#21231E" stroke-width="0.0601" stroke-linejoin="round" cx="20.431" cy="9.996" r="0.384"/>
			<circle fill="#FFFFFF" stroke="#21231E" stroke-width="0.0601" stroke-linejoin="round" cx="20.13" cy="9.333" r="0.386"/>
			<circle fill="#FFFFFF" stroke="#21231E" stroke-width="0.0601" stroke-linejoin="round" cx="19.83" cy="8.673" r="0.386"/>
			<circle fill="#FFFFFF" stroke="#21231E" stroke-width="0.0601" stroke-linejoin="round" cx="19.588" cy="7.952" r="0.383"/>
		</g>
		<g>
			<path fill="#EDB92E" stroke="#21231E" stroke-width="0.0601" stroke-linejoin="round" d="M17.546,11.196l-0.022,0.121
				c-0.169,0.038-0.311,0.048-0.432,0.028C17.293,11.148,17.441,11.106,17.546,11.196z"/>
			<path fill="#EDB92E" stroke="#21231E" stroke-width="0.0601" stroke-linejoin="round" d="M17.485,10.915
				c0.105,0.025,0.115,0.045,0.163,0.052c0.061,0.009,0.144,0.006,0.197-0.045c0.233-0.138,0.236,0.111,0.147,0.303
				c-0.064,0.134-0.125,0.31-0.061,0.428c0.069,0.137,0.056,0.201,0.003,0.235c-0.034,0.026-0.07,0.048-0.101,0.067
				c-0.063,0.073-0.11,0.061-0.118-0.035c-0.231-0.099-0.214-0.341-0.282-0.536C17.333,11.098,16.968,11.03,17.485,10.915
				L17.485,10.915z"/>
			<path fill="#EDB92E" stroke="#21231E" stroke-width="0.0601" stroke-linejoin="round" d="M17.604,10.928
				c0.201,0.07,0.225-0.041,0.36-0.035c-0.054,0.31-0.106,0.473-0.427,0.304c-0.178-0.09-0.405,0.044-0.447,0.14
				c-0.016,0.039-0.118-0.038-0.156-0.121C16.777,10.871,17.336,10.829,17.604,10.928z"/>
			<path fill="#EDB92E" stroke="#21231E" stroke-width="0.0601" stroke-linejoin="round" d="M18.314,12.424
				c0.146-0.045,0.374,0.277,0.428,0.271c0.07-0.182-0.075-0.625-0.332-0.977c-0.175-0.057-0.191-0.172-0.228-0.434
				c-0.013-0.079-0.164-0.025-0.164,0.108c-0.004,0.144-0.017,0.224,0.018,0.345c0.013,0.051,0.005,0.096-0.048,0.141
				C18.261,11.99,18.327,12.121,18.314,12.424L18.314,12.424z"/>
			<path fill="#EDB92E" stroke="#21231E" stroke-width="0.0601" stroke-linejoin="round" d="M18.183,11.288
				c-0.024,0.062-0.033,0.112-0.037,0.204c-0.006,0.07,0.021,0.135,0.064,0.191c0.044,0.061,0.108,0.112,0.18,0.153
				c0.043,0.025,0.098,0.099,0.136,0.179c0.041,0.08,0.07,0.172,0.071,0.239c0.007,0.214,0.048,0.402,0.146,0.44
				c0.065,0.025,0.093,0.019,0.141,0.006c-0.015-0.038-0.01-0.092-0.042-0.146c-0.044-0.066-0.086-0.146-0.089-0.217
				c-0.003-0.058-0.029-0.093-0.007-0.197c0.013-0.07,0.058-0.096,0.05-0.16c-0.015-0.124-0.11-0.363-0.254-0.363
				c-0.142,0-0.209-0.016-0.28-0.204C18.235,11.35,18.203,11.32,18.183,11.288L18.183,11.288z"/>
			<path fill="#EDB92E" stroke="#21231E" stroke-width="0.0601" stroke-linejoin="round" d="M17.653,11.806
				c0.038-0.029,0.084-0.052,0.129-0.07c0.073-0.029,0.153-0.032,0.229-0.01c0.338,0.102,0.485,0.701,0.115,0.845
				c-0.073,0.01-0.141-0.054-0.206-0.2c-0.076-0.191-0.159-0.322-0.247-0.408C17.619,11.895,17.616,11.84,17.653,11.806
				L17.653,11.806z"/>
			<path fill="#EDB92E" stroke="#21231E" stroke-width="0.0601" stroke-linejoin="round" d="M17.82,11.84
				c0.325-0.124,0.564,0.495,0.262,0.613c-0.164,0.063-0.179-0.141-0.211-0.252C17.83,12.048,17.511,11.962,17.82,11.84z"/>
			<path fill="#EDB92E" stroke="#21231E" stroke-width="0.0601" stroke-linejoin="round" d="M24.537,10.055
				c-0.162-0.3-0.335-0.495-0.517-0.578c0.252-0.791,0.31-1.814,0.164-3.071c-0.016-0.188-0.062-0.271-0.132-0.268
				c-0.063,0-0.103,0.096-0.108,0.313c0.048,0.692,0.102,1.298,0.071,1.812c-0.03,0.463-0.135,0.842-0.253,1.272
				c-0.018,0.061,0.025,0.105,0.232,0.224c0.153,0.086,0.247,0.194,0.281,0.306c0.043-0.019,0.073-0.013,0.087-0.009
				C24.512,10.099,24.577,10.086,24.537,10.055L24.537,10.055z"/>
			<path fill="#EDB92E" stroke="#21231E" stroke-width="0.0601" stroke-linejoin="round" d="M23.577,11.053
				c0.093-0.061,0.11-0.045,0.141-0.08c0.038-0.051,0.04-0.134,0.028-0.21c-0.049-0.319,0.141-0.274,0.354-0.135
				c0.105,0.07,0.214,0.233,0.307,0.316c0.092,0.086,0.167,0.096,0.19,0.127c0.004,0.122,0.004,0.227,0,0.274
				c0.004,0.048,0,0.153,0,0.274c-0.025,0.035-0.1,0.042-0.19,0.128c-0.093,0.086-0.198,0.249-0.307,0.315
				c-0.214,0.141-0.403,0.188-0.354-0.131c0.013-0.079,0.012-0.162-0.028-0.21c-0.03-0.039-0.048-0.022-0.141-0.083
				c-0.063-0.038-0.108-0.083-0.137-0.134c-0.033-0.052-0.018-0.105-0.018-0.16c0-0.054-0.016-0.108,0.018-0.159
				C23.469,11.139,23.514,11.091,23.577,11.053L23.577,11.053z"/>
			<path fill="#EDB92E" stroke="#21231E" stroke-width="0.0601" stroke-linejoin="round" d="M23.737,10.615
				c0.07,0.029,0.144,0.058,0.207,0.118c0.096,0.096,0.033,0.249-0.09,0.398c-0.041,0.048-0.061,0.131-0.061,0.214
				c0,0.086,0.022,0.169,0.061,0.214c0.122,0.15,0.184,0.307,0.09,0.398c-0.063,0.061-0.137,0.093-0.207,0.121
				c-0.007-0.034-0.007-0.082,0.003-0.144c0.013-0.079,0.013-0.162-0.028-0.21c-0.031-0.038-0.048-0.022-0.143-0.083
				c-0.059-0.038-0.106-0.083-0.137-0.134c-0.031-0.051-0.015-0.105-0.015-0.159c0-0.055-0.016-0.109,0.015-0.16
				c0.031-0.051,0.078-0.096,0.137-0.134c0.095-0.061,0.111-0.045,0.143-0.083c0.039-0.048,0.039-0.131,0.028-0.21
				C23.73,10.698,23.73,10.65,23.737,10.615L23.737,10.615z"/>
			<path fill="#EDB92E" stroke="#21231E" stroke-width="0.0601" stroke-linejoin="round" d="M20.709,10.176
				c0.081,0.102,0.068,0.127,0.112,0.156c0.058,0.038,0.133,0.025,0.205-0.004c0.291-0.108,0.291,0.121,0.207,0.39
				c-0.042,0.128-0.166,0.268-0.224,0.376c-0.053,0.108-0.041,0.188-0.066,0.217c-0.104,0.017-0.195,0.029-0.238,0.032
				c-0.04,0.007-0.131,0.02-0.237,0.032c-0.033-0.022-0.058-0.1-0.156-0.182c-0.098-0.083-0.265-0.176-0.355-0.278
				c-0.184-0.207-0.279-0.408,0.008-0.401c0.073,0,0.144-0.013,0.176-0.064c0.025-0.038,0.006-0.061,0.031-0.175
				c0.017-0.077,0.043-0.138,0.08-0.182c0.038-0.045,0.093-0.035,0.141-0.045c0.049-0.01,0.097-0.038,0.152-0.013
				C20.599,10.063,20.656,10.108,20.709,10.176L20.709,10.176z"/>
			<path fill="#EDB92E" stroke="#21231E" stroke-width="0.0601" stroke-linejoin="round" d="M21.165,10.297
				c-0.012,0.083-0.024,0.179-0.064,0.258c-0.065,0.125-0.222,0.077-0.391-0.041c-0.051-0.038-0.134-0.048-0.209-0.032
				c-0.074,0.013-0.144,0.045-0.17,0.096c-0.098,0.159-0.214,0.249-0.319,0.156c-0.073-0.058-0.121-0.137-0.169-0.207
				c0.031-0.013,0.073-0.02,0.127-0.02c0.07,0.004,0.144-0.009,0.176-0.063c0.024-0.038,0.007-0.058,0.032-0.172
				c0.016-0.08,0.043-0.141,0.079-0.186c0.037-0.045,0.093-0.035,0.141-0.045c0.051-0.006,0.098-0.034,0.151-0.009
				c0.056,0.028,0.11,0.073,0.163,0.14c0.081,0.103,0.07,0.125,0.114,0.153c0.057,0.038,0.133,0.025,0.204-0.003
				C21.083,10.303,21.131,10.293,21.165,10.297L21.165,10.297z"/>
			<path fill="#EDB92E" stroke="#21231E" stroke-width="0.0601" stroke-linejoin="round" d="M19.565,11.451
				c0.046-0.058,0.066-0.045,0.073-0.08c0.013-0.048-0.017-0.117-0.051-0.188c-0.141-0.274,0.011-0.252,0.213-0.141
				c0.048,0.025,0.108,0.076,0.169,0.128c0.062,0.051,0.12,0.102,0.171,0.137c0.101,0.073,0.161,0.076,0.19,0.103
				c0.043,0.111,0.081,0.207,0.097,0.252c0.018,0.044,0.055,0.14,0.095,0.252c-0.007,0.031-0.064,0.038-0.107,0.117
				c-0.041,0.08-0.075,0.221-0.128,0.291c-0.074,0.099-0.145,0.159-0.199,0.149c-0.054-0.01-0.092-0.089-0.104-0.265
				c-0.007-0.066-0.045-0.141-0.092-0.182c-0.033-0.035-0.043-0.02-0.129-0.07c-0.054-0.028-0.102-0.067-0.141-0.111
				c-0.038-0.042-0.044-0.09-0.061-0.134c-0.018-0.048-0.048-0.093-0.041-0.138C19.525,11.527,19.535,11.486,19.565,11.451
				L19.565,11.451z"/>
			<path fill="#EDB92E" stroke="#21231E" stroke-width="0.0601" stroke-linejoin="round" d="M19.541,11.005
				c0.061,0.022,0.101,0.051,0.171,0.105c0.05,0.044,0.08,0.104,0.091,0.178c0.01,0.07,0.002,0.153-0.018,0.233
				c-0.013,0.051,0,0.137,0.032,0.22c0.028,0.083,0.071,0.166,0.118,0.211c0.146,0.146,0.248,0.303,0.208,0.398
				c-0.026,0.063-0.047,0.08-0.091,0.108c-0.016-0.035-0.061-0.07-0.073-0.131c-0.019-0.076-0.048-0.159-0.096-0.207
				c-0.035-0.038-0.041-0.08-0.132-0.138c-0.058-0.034-0.107-0.021-0.146-0.066c-0.075-0.096-0.178-0.325-0.078-0.431
				c0.095-0.103,0.13-0.159,0.048-0.338C19.548,11.088,19.549,11.043,19.541,11.005L19.541,11.005z"/>
			<path fill="#EDB92E" stroke="#21231E" stroke-width="0.0601" stroke-linejoin="round" d="M22.107,11.751
				c-0.077,0.063-0.096,0.055-0.116,0.093c-0.027,0.051-0.015,0.131,0.009,0.201c0.095,0.286-0.083,0.261-0.292,0.152
				c-0.104-0.054-0.226-0.194-0.318-0.265c-0.096-0.066-0.163-0.066-0.188-0.096c-0.027-0.114-0.048-0.214-0.058-0.258
				c-0.009-0.045-0.031-0.147-0.051-0.265c0.013-0.035,0.078-0.055,0.142-0.147c0.065-0.099,0.131-0.28,0.216-0.37
				c0.172-0.178,0.346-0.258,0.357,0.09c0,0.083,0.016,0.169,0.061,0.217c0.035,0.035,0.051,0.016,0.149,0.067
				c0.064,0.031,0.115,0.073,0.153,0.121c0.037,0.044,0.028,0.102,0.035,0.156c0.01,0.054,0.035,0.105,0.013,0.159
				C22.195,11.658,22.161,11.706,22.107,11.751L22.107,11.751z"/>
			<path fill="#EDB92E" stroke="#21231E" stroke-width="0.0601" stroke-linejoin="round" d="M22.024,12.179
				c-0.064-0.022-0.134-0.042-0.201-0.093c-0.101-0.076-0.07-0.227,0.016-0.38c0.027-0.051,0.03-0.134,0.017-0.217
				c-0.015-0.083-0.045-0.162-0.09-0.204c-0.144-0.137-0.227-0.287-0.156-0.396c0.048-0.073,0.113-0.118,0.173-0.159
				c0.011,0.038,0.021,0.089,0.021,0.156c0.004,0.083,0.02,0.169,0.063,0.214c0.033,0.035,0.05,0.019,0.148,0.066
				c0.063,0.032,0.116,0.073,0.153,0.121c0.035,0.045,0.03,0.103,0.036,0.157c0.008,0.054,0.034,0.104,0.012,0.159
				c-0.022,0.051-0.058,0.102-0.108,0.144c-0.077,0.066-0.096,0.054-0.116,0.096c-0.027,0.048-0.014,0.127,0.009,0.201
				C22.018,12.099,22.024,12.144,22.024,12.179L22.024,12.179z"/>
		</g>
		<g>
			<path fill="#EDB92E" stroke="#21231E" stroke-width="0.0601" stroke-linecap="round" d="M20.596,14.931l1.321-0.774l1.405,0.608
				L22,15.534L20.596,14.931z"/>
			<path fill="#EDB92E" stroke="#21231E" stroke-width="0.0601" stroke-linecap="round" d="M19.001,14.379l1.43,0.564l-1.182,0.772
				c-0.308-0.103-0.548-1.148-0.248-1.34V14.379z"/>
		</g>
		<g>
			<path fill="#21231E" d="M24.598,11.445c-0.217,0.025-0.408,0.111-0.578,0.258c0.116-0.169,0.311-0.274,0.582-0.313L24.598,11.445
				z"/>
			<path fill="#21231E" d="M24.598,11.24c-0.217-0.028-0.408-0.114-0.578-0.261c0.116,0.169,0.311,0.274,0.582,0.313L24.598,11.24z"
				/>
			<path fill="#21231E" d="M17.805,11.729c-0.088-0.124-0.113-0.252-0.077-0.379c-0.086,0.102-0.074,0.235,0.034,0.395
				L17.805,11.729z"/>
			<path fill="#21231E" d="M20.618,11.343c-0.08-0.22-0.206-0.415-0.38-0.577c0.182,0.099,0.323,0.29,0.427,0.577H20.618z"/>
			<path fill="#21231E" d="M20.793,11.317c-0.028-0.233,0.003-0.45,0.096-0.654c-0.123,0.15-0.169,0.37-0.137,0.667L20.793,11.317z"
				/>
			<path fill="#21231E" d="M20.468,11.799c-0.164,0.045-0.284,0.144-0.36,0.293c0.04-0.178,0.156-0.296,0.348-0.348L20.468,11.799z"
				/>
			<path fill="#21231E" d="M20.395,11.595c-0.188-0.02-0.373-0.099-0.552-0.232c0.164,0.165,0.354,0.261,0.577,0.287L20.395,11.595z
				"/>
			<path fill="#21231E" d="M21.135,11.479c0.185-0.048,0.341-0.156,0.469-0.325c-0.072,0.186-0.227,0.31-0.463,0.38L21.135,11.479z"
				/>
			<path fill="#21231E" d="M21.178,11.675c0.191,0.003,0.374,0.066,0.552,0.191c-0.131-0.15-0.321-0.233-0.569-0.239L21.178,11.675z
				"/>
		</g>
		
			<ellipse transform="matrix(0.0688 0.9976 -0.9976 0.0688 35.2539 -8.0965)" fill="#C6363C" stroke="#21231E" stroke-width="0.0601" cx="21.964" cy="14.835" rx="0.419" ry="0.602"/>
		<path fill="#EDB92E" stroke="#21231E" stroke-width="0.0601" stroke-linejoin="round" d="M20.696,11.167
			c0.24-0.009,0.475,0.201,0.512,0.46c0.035,0.258-0.138,0.459-0.369,0.462c-0.234,0-0.447-0.188-0.492-0.437
			C20.302,11.403,20.455,11.18,20.696,11.167L20.696,11.167z"/>
		<path fill="#EDB92E" stroke="#21231E" stroke-width="0.0601" stroke-linejoin="round" d="M20.713,11.295
			c0.178-0.007,0.348,0.144,0.374,0.335c0.026,0.188-0.096,0.341-0.267,0.341c-0.171,0.004-0.332-0.14-0.365-0.321
			C20.423,11.461,20.535,11.302,20.713,11.295L20.713,11.295z"/>
		<g>
			<path fill="#0C4076" stroke="#21231E" stroke-width="0.0601" d="M17.858,11.936c0.16-0.063,0.375,0.31,0.178,0.393
				c-0.135,0.058-0.238-0.016-0.282-0.131C17.712,12.086,17.747,11.98,17.858,11.936z"/>
			<path fill="#0C4076" stroke="#21231E" stroke-width="0.0601" d="M19.049,14.625c0.343-0.035,0.631,0.121,0.653,0.348
				s-0.234,0.434-0.577,0.469c-0.229,0.025-0.354-0.118-0.38-0.348C18.723,14.864,18.818,14.647,19.049,14.625z"/>
			<path fill="#0C4076" stroke="#21231E" stroke-width="0.0601" d="M20.732,11.419c0.11-0.003,0.217,0.093,0.234,0.211
				c0.017,0.118-0.059,0.214-0.167,0.217c-0.108,0.003-0.211-0.089-0.231-0.204C20.549,11.527,20.621,11.426,20.732,11.419z"/>
		</g>
	</g>
	<circle fill="#FFFFFF" stroke="#21231E" stroke-width="0.0601" stroke-linejoin="round" cx="25" cy="9.516" r="0.383"/>
	<circle fill="#FFFFFF" stroke="#21231E" stroke-width="0.0601" stroke-linejoin="round" cx="25" cy="8.794" r="0.386"/>
	<circle fill="#FFFFFF" stroke="#21231E" stroke-width="0.0601" stroke-linejoin="round" cx="25" cy="8.101" r="0.384"/>
	<circle fill="#FFFFFF" stroke="#21231E" stroke-width="0.0601" stroke-linejoin="round" cx="25" cy="6.15" r="0.386"/>
	<circle fill="#FFFFFF" stroke="#21231E" stroke-width="0.0601" stroke-linejoin="round" cx="25" cy="6.749" r="0.384"/>
	<circle fill="#FFFFFF" stroke="#21231E" stroke-width="0.0601" stroke-linejoin="round" cx="25" cy="7.41" r="0.386"/>
	<path id="g_2_" fill="#21231E" d="M24.902,10.935c-0.026-0.217-0.114-0.408-0.263-0.577c0.172,0.114,0.279,0.31,0.315,0.587
		L24.902,10.935z"/>
	<path fill="#EDB92E" stroke="#21231E" stroke-width="0.0601" stroke-linejoin="round" d="M25,9.755
		c0.054,0,0.108-0.017,0.156,0.013c0.048,0.028,0.098,0.076,0.134,0.137c0.055,0.089,0.033,0.118,0.083,0.144
		c0.061,0.028,0.134,0.041,0.212,0.028c0.06-0.009,0.106-0.009,0.144-0.003c-0.029,0.067-0.061,0.15-0.119,0.211
		c-0.09,0.089-0.216,0.022-0.396-0.1c-0.055-0.034-0.128-0.051-0.212-0.051c-0.085,0-0.156,0.017-0.211,0.051
		c-0.18,0.122-0.308,0.188-0.397,0.1c-0.057-0.061-0.089-0.144-0.117-0.211c0.035-0.006,0.084-0.006,0.144,0.003
		c0.078,0.013,0.149,0,0.21-0.028c0.048-0.025,0.03-0.055,0.085-0.144c0.036-0.061,0.084-0.108,0.132-0.137
		C24.892,9.738,24.945,9.755,25,9.755z"/>
	<path fill="#EDB92E" stroke="#21231E" stroke-width="0.0601" stroke-linejoin="round" d="M25,10.874
		c0.257,0,0.466,0.214,0.466,0.469c0,0.259-0.209,0.469-0.466,0.469c-0.255,0-0.466-0.207-0.466-0.469
		C24.534,11.084,24.745,10.874,25,10.874z"/>
	<path fill="#EDB92E" stroke="#21231E" stroke-width="0.0601" stroke-linejoin="round" d="M30.891,15.977
		c0-0.108-0.099-0.169-0.295-0.185c-3.729-0.306-7.462-0.306-11.193,0c-0.196,0.016-0.293,0.076-0.293,0.185s0.097,0.17,0.293,0.186
		c3.731,0.306,7.464,0.306,11.193,0C30.795,16.146,30.891,16.086,30.891,15.977"/>
	<circle fill="#EDB92E" stroke="#21231E" stroke-width="0.0601" stroke-linejoin="round" cx="25" cy="11.343" r="0.463"/>
	<circle fill="#EDB92E" stroke="#21231E" stroke-width="0.0601" stroke-linejoin="round" cx="25" cy="11.341" r="0.343"/>
	<ellipse fill="#0C4076" stroke="#21231E" stroke-width="0.0601" cx="25" cy="14.744" rx="0.602" ry="0.423"/>
	<circle fill="#0C4076" stroke="#21231E" stroke-width="0.0601" cx="25" cy="11.343" r="0.224"/>
	<path fill="none" stroke="#21231E" stroke-width="0.0601" stroke-linecap="round" d="M22.174,16.188
		c-0.424-0.032-0.887-0.073-1.384-0.124c2.807-0.201,5.61-0.201,8.415,0c-0.496,0.051-0.957,0.092-1.383,0.124"/>
	<path fill="#C6363C" stroke="#FFFFFF" stroke-width="0.1502" d="M35.146,16.264v16.515c0,2.705-1.203,5.35-3.008,7.271
		c-1.803,1.93-4.328,3.247-7.139,3.247c-2.81,0-5.336-1.319-7.138-3.247c-1.803-1.923-3.007-4.566-3.007-7.271V16.264H35.146z"/>
	<path fill="#FFFFFF" stroke="#21231E" stroke-width="0.0601" stroke-linejoin="round" d="M24.907,42.325
		c-0.089-0.017-0.235,0.003-0.346-0.086c-0.148-0.115-0.091-0.587-0.078-0.888c0.07-1.521,0.131-4.088,0.21-7.692
		c0.125-0.017,0.219-0.007,0.307,0.003c0.086-0.014,0.179-0.02,0.306-0.003c0.079,3.604,0.141,6.172,0.209,7.692
		c0.014,0.301,0.073,0.771-0.079,0.888c-0.109,0.089-0.256,0.069-0.344,0.086H24.907L24.907,42.325z"/>
	<path fill="#FFFFFF" stroke="#21231E" stroke-width="0.0601" stroke-linejoin="round" d="M23.954,42.279
		c0.088-0.006,0.232,0.025,0.353-0.051c0.157-0.103,0.17-0.584,0.183-0.883c0.072-1.525,0.213-4.08,0.46-7.675
		c-0.125-0.028-0.217-0.028-0.305-0.022c-0.015-0.002-0.03-0.006-0.04-0.008c-0.574,3.555-0.789,6.078-1.184,7.6
		c-0.054,0.211-0.169,0.736,0.012,0.908c0.104,0.101,0.252,0.094,0.338,0.115L23.954,42.279L23.954,42.279z"/>
	<path fill="#FFFFFF" stroke="#21231E" stroke-width="0.0601" stroke-linejoin="round" d="M22.831,42.121
		c0.09,0,0.229,0.045,0.354-0.02c0.169-0.09,0.162-0.57,0.237-0.861c0.393-1.521,0.607-4.047,1.182-7.604
		c-0.121-0.04-0.215-0.048-0.303-0.051c-0.912,3.461-1.184,5.897-1.892,7.401c-0.065,0.212-0.242,0.764-0.071,0.957
		c0.094,0.108,0.24,0.115,0.326,0.146l0.179,0.035L22.831,42.121z"/>
	<path fill="#FFFFFF" stroke="#21231E" stroke-width="0.0601" stroke-linejoin="round" d="M21.704,41.799
		c0.087,0.014,0.235,0.096,0.368,0.041c0.172-0.072,0.201-0.586,0.327-0.854c0.709-1.512,0.983-3.965,1.903-7.45
		c-0.118-0.052-0.209-0.07-0.295-0.08c-0.083-0.038-0.066-0.058-0.191-0.073c-1.069,3.441-1.419,5.834-2.427,7.316
		c-0.163,0.242-0.282,0.721-0.169,0.874c0.081,0.114,0.229,0.141,0.306,0.176L21.704,41.799L21.704,41.799z"/>
	<path fill="#FFFFFF" stroke="#21231E" stroke-width="0.0601" stroke-linejoin="round" d="M26.043,42.279
		c-0.086-0.006-0.232,0.025-0.352-0.051c-0.159-0.103-0.172-0.584-0.186-0.883c-0.07-1.525-0.21-4.08-0.459-7.675
		c0.124-0.028,0.217-0.028,0.307-0.022c0.013-0.002,0.028-0.006,0.039-0.008c0.576,3.555,0.791,6.078,1.182,7.6
		c0.055,0.211,0.171,0.736-0.009,0.908c-0.104,0.101-0.252,0.094-0.34,0.115L26.043,42.279L26.043,42.279z"/>
	<path fill="#FFFFFF" stroke="#21231E" stroke-width="0.0601" stroke-linejoin="round" d="M27.171,42.121
		c-0.09,0-0.231,0.045-0.356-0.02c-0.168-0.09-0.162-0.57-0.234-0.861c-0.393-1.521-0.609-4.047-1.182-7.604
		c0.12-0.04,0.213-0.048,0.301-0.051c0.912,3.461,1.186,5.897,1.892,7.401c0.065,0.212,0.242,0.764,0.073,0.957
		c-0.096,0.108-0.242,0.115-0.328,0.146l-0.178,0.035L27.171,42.121z"/>
	<path fill="#FFFFFF" stroke="#21231E" stroke-width="0.0601" stroke-linejoin="round" d="M28.295,41.799
		c-0.09,0.014-0.238,0.096-0.368,0.041c-0.174-0.072-0.202-0.586-0.327-0.854c-0.711-1.512-0.983-3.965-1.904-7.45
		c0.117-0.052,0.207-0.07,0.298-0.08c0.079-0.038,0.065-0.058,0.19-0.073c1.068,3.441,1.416,5.834,2.424,7.316
		c0.166,0.242,0.285,0.721,0.172,0.874c-0.082,0.114-0.229,0.141-0.309,0.176L28.295,41.799L28.295,41.799z"/>
	<path fill="#FFFFFF" stroke="#21231E" stroke-width="0.0601" stroke-linejoin="round" d="M22.299,39.203
		c0.079,0.003,0.204,0.051,0.328-0.01c0.169-0.08,0.277-0.547,0.37-0.834c0.715-1.416,1.37-3.928,2.443-7.422
		c-0.105-0.041-0.188-0.054-0.267-0.061c-0.072-0.031-0.148-0.059-0.265-0.07c-1.154,3.459-1.673,5.955-2.802,7.334
		c-0.187,0.227-0.325,0.724-0.238,0.866c0.065,0.108,0.201,0.121,0.271,0.153l0.158,0.038v0.005H22.299z"/>
	<path fill="#FFFFFF" stroke="#21231E" stroke-width="0.0601" stroke-linejoin="round" d="M23.214,39.381
		c0.081-0.003,0.207,0.035,0.327-0.035c0.157-0.092,0.212-0.563,0.271-0.856c0.287-1.507,0.82-4.031,1.576-7.581
		c-0.107-0.035-0.191-0.039-0.271-0.039c-0.073-0.025-0.154-0.049-0.27-0.049c-0.895,3.529-1.102,6.166-1.945,7.525
		c-0.154,0.244-0.241,0.742-0.137,0.879c0.079,0.104,0.213,0.105,0.29,0.131L23.214,39.381L23.214,39.381z"/>
	<path fill="#FFFFFF" stroke="#21231E" stroke-width="0.0601" stroke-linejoin="round" d="M24.142,39.486
		c0.083-0.01,0.211,0.02,0.322-0.062c0.147-0.102,0.147-0.577,0.171-0.877c0.113-1.519,0.353-4.079,0.697-7.671
		c-0.112-0.025-0.195-0.025-0.276-0.016c-0.076-0.022-0.158-0.035-0.274-0.028c-0.484,3.581-0.766,6.174-1.069,7.642
		c-0.062,0.293-0.155,0.762-0.035,0.891c0.091,0.099,0.225,0.086,0.301,0.107L24.142,39.486L24.142,39.486z"/>
	<path fill="#FFFFFF" stroke="#21231E" stroke-width="0.0601" stroke-linejoin="round" d="M27.698,39.203
		c-0.08,0.003-0.201,0.051-0.327-0.01c-0.171-0.08-0.279-0.547-0.368-0.834c-0.716-1.416-1.371-3.928-2.443-7.422
		c0.103-0.041,0.186-0.054,0.265-0.061c0.07-0.031,0.148-0.059,0.265-0.07c1.155,3.459,1.672,5.955,2.805,7.334
		c0.186,0.227,0.321,0.724,0.235,0.866c-0.067,0.108-0.2,0.121-0.271,0.153L27.7,39.198v0.005H27.698z"/>
	<path fill="#FFFFFF" stroke="#21231E" stroke-width="0.0601" stroke-linejoin="round" d="M26.786,39.381
		c-0.08-0.003-0.207,0.035-0.325-0.035c-0.159-0.092-0.214-0.563-0.271-0.856c-0.289-1.507-0.818-4.031-1.578-7.581
		c0.108-0.035,0.19-0.039,0.273-0.039c0.073-0.025,0.153-0.049,0.269-0.049c0.896,3.529,1.1,6.166,1.946,7.525
		c0.155,0.244,0.238,0.742,0.137,0.879c-0.079,0.104-0.213,0.105-0.288,0.131L26.786,39.381L26.786,39.381z"/>
	<path fill="#FFFFFF" stroke="#21231E" stroke-width="0.0601" stroke-linejoin="round" d="M25.854,39.486
		c-0.082-0.01-0.209,0.02-0.319-0.062c-0.146-0.102-0.148-0.577-0.171-0.877c-0.113-1.519-0.354-4.079-0.698-7.671
		c0.113-0.025,0.196-0.025,0.277-0.016c0.077-0.022,0.156-0.035,0.274-0.028c0.485,3.581,0.763,6.174,1.07,7.642
		c0.062,0.293,0.153,0.762,0.032,0.891c-0.088,0.099-0.223,0.086-0.301,0.107L25.854,39.486L25.854,39.486z"/>
	<path fill="#FFFFFF" stroke="#21231E" stroke-width="0.0601" stroke-linejoin="round" d="M24.917,39.516
		c-0.08-0.014-0.212,0.006-0.313-0.082c-0.134-0.115-0.081-0.588-0.07-0.888c0.063-1.524,0.12-4.089,0.189-7.692
		c0.113-0.02,0.196-0.011,0.276,0.002c0.08-0.013,0.163-0.021,0.277-0.002c0.07,3.604,0.124,6.168,0.187,7.692
		c0.012,0.3,0.064,0.771-0.07,0.888c-0.101,0.088-0.234,0.068-0.311,0.082H24.917L24.917,39.516z"/>
	<path fill="#FFFFFF" stroke="#21231E" stroke-width="0.0601" stroke-linejoin="round" d="M22.932,37.104
		c0.063,0.008,0.154,0.056,0.25-0.002c0.131-0.08,0.214-0.545,0.284-0.836c0.549-1.416,1.05-3.93,1.871-7.418l-0.405-0.132
		c-0.886,3.454-1.284,5.955-2.148,7.329c-0.141,0.229-0.247,0.725-0.179,0.867c0.051,0.109,0.153,0.125,0.209,0.156
		C22.851,37.078,22.892,37.091,22.932,37.104L22.932,37.104z"/>
	<path fill="#FFFFFF" stroke="#21231E" stroke-width="0.0601" stroke-linejoin="round" d="M23.632,37.286
		c0.063,0,0.159,0.034,0.25-0.032c0.12-0.096,0.163-0.564,0.208-0.861c0.22-1.504,0.628-4.033,1.207-7.58l-0.415-0.09
		c-0.686,3.527-0.845,6.166-1.492,7.521c-0.115,0.248-0.183,0.745-0.103,0.88c0.06,0.105,0.166,0.107,0.22,0.134
		C23.549,37.268,23.59,37.275,23.632,37.286L23.632,37.286z"/>
	<path fill="#FFFFFF" stroke="#21231E" stroke-width="0.0601" stroke-linejoin="round" d="M24.343,37.391
		c0.061-0.009,0.163,0.021,0.246-0.061c0.111-0.102,0.113-0.577,0.131-0.877c0.086-1.521,0.27-4.079,0.534-7.671l-0.421-0.044
		c-0.372,3.58-0.586,6.175-0.822,7.642c-0.046,0.294-0.116,0.763-0.025,0.89c0.067,0.097,0.171,0.09,0.23,0.108
		C24.264,37.382,24.303,37.389,24.343,37.391L24.343,37.391z"/>
	<path fill="#FFFFFF" stroke="#21231E" stroke-width="0.0601" stroke-linejoin="round" d="M27.066,37.104
		c-0.063,0.008-0.156,0.056-0.252-0.002c-0.129-0.08-0.213-0.545-0.28-0.836c-0.55-1.416-1.053-3.93-1.872-7.418l0.406-0.132
		c0.886,3.454,1.282,5.955,2.146,7.329c0.144,0.229,0.247,0.725,0.181,0.867c-0.052,0.109-0.154,0.125-0.207,0.156
		C27.148,37.078,27.105,37.091,27.066,37.104L27.066,37.104z"/>
	<path fill="#FFFFFF" stroke="#21231E" stroke-width="0.0601" stroke-linejoin="round" d="M26.368,37.286
		c-0.062,0-0.159,0.034-0.249-0.032c-0.121-0.096-0.165-0.564-0.207-0.861c-0.221-1.504-0.632-4.033-1.209-7.58l0.416-0.09
		c0.686,3.527,0.844,6.166,1.49,7.521c0.115,0.248,0.183,0.745,0.104,0.88c-0.061,0.105-0.164,0.107-0.222,0.134
		C26.448,37.268,26.408,37.275,26.368,37.286L26.368,37.286z"/>
	<path fill="#FFFFFF" stroke="#21231E" stroke-width="0.0601" stroke-linejoin="round" d="M25.652,37.391
		c-0.061-0.009-0.161,0.021-0.244-0.061c-0.111-0.102-0.111-0.577-0.131-0.877c-0.086-1.521-0.268-4.079-0.532-7.671l0.421-0.044
		c0.371,3.58,0.587,6.175,0.818,7.642c0.049,0.294,0.119,0.763,0.027,0.89c-0.068,0.097-0.171,0.09-0.23,0.108
		C25.738,37.382,25.695,37.389,25.652,37.391L25.652,37.391z"/>
	<path fill="#FFFFFF" stroke="#21231E" stroke-width="0.0601" stroke-linejoin="round" d="M24.937,37.42
		c-0.061-0.013-0.163,0.006-0.238-0.083c-0.104-0.114-0.062-0.587-0.053-0.887c0.045-1.524,0.09-4.089,0.144-7.693h0.425
		c0.051,3.604,0.097,6.169,0.144,7.693c0.01,0.3,0.049,0.771-0.052,0.887c-0.079,0.089-0.18,0.07-0.24,0.083H24.937L24.937,37.42z"
		/>
	<path fill="#FFFFFF" stroke="#21231E" stroke-width="0.0601" stroke-linejoin="round" d="M26.088,32.73
		c0,0.287-0.715,3.33-1.088,3.33c-0.372,0-1.088-3.043-1.088-3.33H26.088z"/>
	<g>
		<path fill="#EDB92E" stroke="#21231E" stroke-width="0.0601" stroke-linejoin="round" d="M29.928,36.504
			c0.021,0,0.036,0.042,0.041,0.063c0.061,0.182,0.297,0.48,0.477,0.662c0.283,0.28,0.203,0.722,0.025,0.961
			c-0.197,0.265-0.313,0.552-0.354,0.763c-0.032,0.151-0.073,0.459-0.037,0.938c0.019,0.238,0.164,0.356,0.295,0.465
			c0.065,0.052-0.048,0.197-0.265,0.36c-0.023,0.017-0.084,0.054-0.121,0.179c-0.004,0.02-0.111,0.02-0.116,0
			c-0.037-0.125-0.099-0.166-0.121-0.179c-0.217-0.163-0.33-0.31-0.265-0.36c0.13-0.107,0.275-0.227,0.295-0.465
			c0.035-0.479-0.008-0.785-0.035-0.938c-0.042-0.211-0.156-0.498-0.354-0.763c-0.183-0.239-0.259-0.681,0.023-0.961
			c0.18-0.182,0.414-0.48,0.475-0.662C29.895,36.549,29.912,36.504,29.928,36.504z"/>
		<path id="c_9_" fill="#EDB92E" stroke="#21231E" stroke-width="0.0601" stroke-linejoin="round" d="M30.693,40.303
			c-0.481,0.36-0.926-0.504-0.494-1.658c0.324-0.863,1.882-0.504,0.998,0.633c-0.043,0.054-0.104,0.031-0.092-0.029
			c0.047-0.242-0.084-0.379-0.336-0.331c-0.633,0.121-0.653,1.323,0.035,1.052C30.934,39.955,30.813,40.214,30.693,40.303"/>
		<g transform="scale(-1,1)">
			<path id="c_8_" fill="#EDB92E" stroke="#21231E" stroke-width="0.0601" stroke-linejoin="round" d="M-29.202,40.303
				c0.121-0.089,0.241-0.348,0.11-0.335c-0.689,0.271-0.665-0.931-0.034-1.052c0.252-0.048,0.385,0.089,0.337,0.331
				c-0.013,0.062,0.051,0.083,0.089,0.028c0.884-1.135-0.673-1.496-0.995-0.631C-30.129,39.799-29.682,40.663-29.202,40.303"/>
		</g>
		<path fill="#EDB92E" stroke="#21231E" stroke-width="0.0601" stroke-linejoin="round" d="M29.57,39.361
			c-0.118,0-0.211,0.097-0.211,0.211c0,0.115,0.093,0.211,0.211,0.211h0.72c0.116,0,0.21-0.096,0.21-0.211
			c0-0.114-0.094-0.211-0.21-0.211H29.57z"/>
		<path fill="#EDB92E" stroke="#21231E" stroke-width="0.0601" stroke-linejoin="round" d="M30.296,33.98
			c0.302,0.66,0.66,1.264,1.022,1.803c0.179,0.061,0.3,0.15,0.418,0.186c0.121,0.038,0.966,0.025,0.994-0.035
			c0.271-0.207,0.69-0.029,0.511,0.211c0.12,0.121-0.118,0.442-0.302,0.299c-0.181-0.144-0.782,0-0.961-0.061
			c0.061,0.184,0.66,0.284,1.021,0.305c0.359,0.016,0.3,0.359,0.18,0.66l-0.121,0.061c-0.119,0.238-0.467,0.169-0.48-0.061
			c-0.01-0.229-0.842-0.539-0.96-0.722c0.118,0.36,0.479,0.722,0.659,1.081c0.181,0.182,0.301,0.182,0.062,0.542l-0.421,0.063
			c-0.363,0-0.421-0.125-0.363-0.424c0.062-0.301-0.221-0.843-0.3-0.996c-0.071-0.144-0.09-0.293-0.161-0.379
			c-0.128-0.17-0.771-0.443-0.921-0.367c-0.301,0.156-0.51,0.062-0.542-0.238c0.061-0.061,0-0.481,0.217-0.518
			c0.182-0.031,0.266,0.062,0.416,0.18c0.238,0.193,0.375,0.303,0.443,0.283c0.191-0.049-0.344-0.307-0.822-0.944
			C29.406,34.27,29.213,33.318,30.296,33.98L30.296,33.98z"/>
		<path fill="#EDB92E" stroke="#21231E" stroke-width="0.0601" stroke-linejoin="round" d="M33.23,36.297
			c0.24-0.141,0.379-0.134,0.474-0.027c0.051,0.054,0.116,0.024,0.08-0.064c-0.161-0.379-0.418-0.428-0.646-0.248
			c-0.065,0.061-0.117,0.111-0.172,0.159C33.009,36.173,33.197,36.252,33.23,36.297L33.23,36.297z"/>
		<path fill="#EDB92E" stroke="#21231E" stroke-width="0.0601" stroke-linejoin="round" d="M29.777,35.959
			c-0.256-0.172-0.498-0.207-0.631-0.111c-0.068,0.055-0.142,0.017-0.078-0.072c0.266-0.375,0.578-0.394,0.813-0.184
			c0.062,0.07,0.113,0.129,0.164,0.186C29.966,35.866,29.787,35.965,29.777,35.959L29.777,35.959z"/>
		<path fill="#EDB92E" stroke="#21231E" stroke-width="0.0601" stroke-linejoin="round" d="M31.794,38.104
			c-0.009-0.018,0.06-0.326,0.162-0.426c0.083,0.064,0.172,0.121,0.259,0.211c0.256,0.269,0.256,0.66-0.146,1.006
			c-0.1,0.088-0.143-0.004-0.103-0.104C32.032,38.625,31.95,38.412,31.794,38.104L31.794,38.104z"/>
		<path fill="#EDB92E" stroke="#21231E" stroke-width="0.0601" stroke-linejoin="round" d="M32.789,37.282
			c0.238,0.1,0.32,0.224,0.313,0.387c-0.004,0.092,0.055,0.124,0.09,0.021c0.289-0.676-0.014-0.804-0.448-0.78
			C32.719,37.027,32.779,37.275,32.789,37.282z"/>
	</g>
	<path fill="none" stroke="#21231E" stroke-width="0.0601" stroke-linecap="round" d="M29.586,34.457
		c0.112-0.107,0.234-0.225,0.35-0.09c0.113,0.131,0.053,0.256-0.113,0.431c0.105-0.069,0.24-0.313,0.361-0.144
		c0.119,0.169,0.012,0.313-0.121,0.453c0.141-0.115,0.246-0.291,0.367-0.146c0.12,0.146,0,0.29-0.105,0.398
		c0.117-0.096,0.238-0.186,0.311-0.104c0.107,0.125,0.018,0.211-0.097,0.316c0.134-0.096,0.224-0.191,0.317-0.083
		c0.096,0.108-0.03,0.241-0.102,0.286"/>
	<g>
		<path fill="#FFFFFF" stroke="#21231E" stroke-width="0.0601" stroke-linejoin="round" d="M29.607,26.346
			c-0.01,0.521,0.08,4.004,0.108,4.494c0.029,0.488,0.246,0.823,0.479,1.016c0.211-0.295,0.338-0.688,0.367-1.151
			c0.018-0.239-0.029-3.531-0.045-4.211L29.607,26.346z"/>
		<path fill="#FFFFFF" stroke="#21231E" stroke-width="0.0601" stroke-linejoin="round" d="M31.868,25.494l0.147,4.783
			c0.047,0.426-0.506,2.951-0.807,3.449c-0.746-0.319-0.907-2.035-0.766-3.703c0.141-1.672-0.023-3.113-0.139-3.414L31.868,25.494z"
			/>
		<path fill="#FFFFFF" stroke="#21231E" stroke-width="0.0601" stroke-linejoin="round" d="M32.755,26.279l-0.101,4.783
			c0.021,0.424-0.66,2.918-0.986,3.396c-0.76-0.59-0.604-2.992-0.49-3.723c0.233-1.45,0.191-3.129,0.112-3.402L32.755,26.279z"/>
		<path fill="#FFFFFF" stroke="#21231E" stroke-width="0.0601" stroke-linejoin="round" d="M33.412,27.411l-1.258-0.032
			c0.105,0.521,0.021,2.141-0.195,3.378c-0.204,1.158-0.486,4.166,0.718,4.888c0.75-1.586,0.179-3.127,0.556-4.504L33.412,27.411z"
			/>
		<path fill="#FFFFFF" stroke="#21231E" stroke-width="0.0601" stroke-linejoin="round" d="M28.607,25.469l0.244,4.487
			c0.045,0.487,0.271,0.813,0.512,0.999c0.201-0.301,0.314-0.695,0.33-1.164c0.011-0.236-0.135-3.523-0.172-4.201L28.607,25.469z"/>
		<path fill="#FFFFFF" stroke="#21231E" stroke-width="0.0601" stroke-linejoin="round" d="M30.84,22.634
			c0.035,1.122,0.053,3.554,0.045,3.761c-0.017,0.465-0.199,1.063-0.402,1.361c-0.238-0.186-0.463-0.514-0.51-1.002
			c-0.033-0.4-0.048-2.373-0.055-3.361L30.84,22.634z"/>
		<path fill="#FFFFFF" stroke="#21231E" stroke-width="0.0601" stroke-linejoin="round" d="M29.941,23.354
			c0.021,1.209,0.01,3.112,0.004,3.266c-0.019,0.469-0.129,0.864-0.334,1.164c-0.238-0.185-0.487-0.522-0.53-1.011
			c-0.026-0.301-0.11-1.592-0.116-2.581L29.941,23.354z"/>
		<path fill="#FFFFFF" stroke="#21231E" stroke-width="0.0601" stroke-linejoin="round" d="M30.714,22.531L31.57,21.3
			c0.172,0.609,0.383,4.976,0.136,5.333c-0.019,0.467-0.185,0.861-0.388,1.161c-0.236-0.185-0.588-0.515-0.488-1.011
			C30.934,26.288,30.816,23.042,30.714,22.531z"/>
		<path fill="#FFFFFF" stroke="#21231E" stroke-width="0.0601" stroke-linejoin="round" d="M32.471,25.28l0.059,1.369
			c-0.018,0.47-0.131,0.867-0.336,1.164c-0.236-0.183-0.539-0.511-0.508-0.998c0.119-1.892-0.088-3.674-0.328-5.384l0.75-0.459
			L32.471,25.28z"/>
		<path fill="#FFFFFF" stroke="#21231E" stroke-width="0.0601" stroke-linejoin="round" d="M33.324,26.516l-0.232,0.881
			c-0.017,0.469-0.303,0.854-0.507,1.15c-0.239-0.186-0.453-0.484-0.394-0.973c0.349-2.791,0.224-4.641-0.363-6.915
			C33.157,21.562,33.771,23.473,33.324,26.516L33.324,26.516z"/>
		<path fill="#FFFFFF" stroke="#21231E" stroke-width="0.0601" stroke-linejoin="round" d="M33.258,27.383l1.215-0.404
			c0.156,1.215-0.084,2.742-0.41,4.756c-0.281,1.729-0.136,3.097,0.082,3.974c-1.299-0.176-1.847-1.851-1.194-4.995
			C33.12,29.891,33.291,28.837,33.258,27.383L33.258,27.383z"/>
		<path fill="#FFFFFF" stroke="#21231E" stroke-width="0.0601" stroke-linejoin="round" d="M32.785,21.763
			c0.3,1.461,0.496,3.18,0.271,5.064c-0.084,0.702-0.233,1.272-0.451,1.717c0.877-0.101,1.438-0.954,1.365-2.446l-0.199-4.166
			L32.785,21.763z"/>
		<path fill="#FFFFFF" stroke="#21231E" stroke-width="0.0601" stroke-linejoin="round" d="M33.423,21.954
			c0.065,0.376,0.291,0.823,0.337,1.305c0.153,1.601,0.154,3.601-0.324,4.88c0.873-0.1,1.174-0.89,1.203-2.383
			c0.022-1.234,0.028-2.688-0.283-4.369L33.423,21.954z"/>
		<path fill="#FFFFFF" stroke="#21231E" stroke-width="0.0601" stroke-linejoin="round" d="M31.605,21.597l0.806-0.096
			c0.147,0.766,0.261,1.305,0.291,1.576c0.053,0.535-0.108,1.023-0.295,1.387c-0.298-0.179-0.437-0.57-0.562-1.119L31.605,21.597z"
			/>
		<path fill="#FFFFFF" stroke="#21231E" stroke-width="0.0601" stroke-linejoin="round" d="M29.51,23.316l0.717,0.006
			c0.023,0.66,0.039,1.106,0.029,1.337c-0.023,0.456-0.137,0.842-0.331,1.129c-0.217-0.183-0.421-0.501-0.454-0.979
			C29.438,24.333,29.504,23.823,29.51,23.316L29.51,23.316z"/>
		<path fill="#FFFFFF" stroke="#21231E" stroke-width="0.0601" stroke-linejoin="round" d="M29.452,23.689
			c0,0.656,0.004,1.104-0.017,1.336c-0.039,0.453-0.168,0.836-0.373,1.12c-0.211-0.19-0.404-0.518-0.42-0.995L29.452,23.689z"/>
		<path fill="#FFFFFF" stroke="#21231E" stroke-width="0.0601" stroke-linejoin="round" d="M30.236,22.946l0.715-0.052
			c0.08,0.654,0.134,1.098,0.141,1.33c0.016,0.453-0.066,0.849-0.238,1.151c-0.231-0.162-0.463-0.465-0.533-0.938
			C30.25,23.967,30.271,23.453,30.236,22.946z"/>
		<path fill="#FFFFFF" stroke="#21231E" stroke-width="0.0601" stroke-linejoin="round" d="M31.691,21.849
			c0.134,0.529,0.313,2.274-0.008,3.015c-0.261-0.179-0.523-0.511-0.611-1.037c-0.092-0.526-0.114-1.088-0.168-1.652L31.691,21.849z
			"/>
		<path fill="#FFFFFF" stroke="#21231E" stroke-width="0.0601" stroke-linejoin="round" d="M28.885,32.316l1.188,0.608
			c0.341,0.757,0.661,1.158,1.073,1.513c-0.595,0.107-1.099-0.006-1.424-0.443c-0.438-0.587-0.668-0.944-0.815-1.023L28.885,32.316z
			"/>
		<path fill="#FFFFFF" stroke="#21231E" stroke-width="0.0601" stroke-linejoin="round" d="M29.134,32.76
			c0.29,0.594,0.487,0.992,0.57,1.209c0.163,0.424,0.208,0.826,0.131,1.174c-0.287-0.072-0.62-0.276-0.844-0.701L29.134,32.76z"/>
		<path fill="#FFFFFF" stroke="#21231E" stroke-width="0.0601" stroke-linejoin="round" d="M28.98,32.941
			c0.139,0.645,0.231,1.082,0.258,1.312c0.055,0.452-0.004,0.854-0.159,1.17c-0.263-0.14-0.532-0.421-0.647-0.883
			c-0.113-0.47-0.129-0.979-0.209-1.483L28.98,32.941z"/>
		<path fill="#FFFFFF" stroke="#21231E" stroke-width="0.0601" stroke-linejoin="round" d="M27.434,33.334
			c0.4,0.729,0.529,1.225,0.567,1.768c0.442-0.412,0.649-0.888,0.498-1.406c-0.211-0.701-0.415-1.51-0.39-1.676L27.434,33.334z"/>
		<path fill="#FFFFFF" stroke="#21231E" stroke-width="0.0601" stroke-linejoin="round" d="M28.63,31.449
			c0.259,0.609,0.433,1.021,0.5,1.236c0.138,0.438,0.16,0.84,0.065,1.182c-0.285-0.09-0.644-0.274-0.844-0.709
			c-0.201-0.438-0.271-0.977-0.447-1.454L28.63,31.449z"/>
		<path fill="#FFFFFF" stroke="#21231E" stroke-width="0.0601" stroke-linejoin="round" d="M28.557,30.215
			c0.168-0.045,0.387,0.346,0.604,0.571c0.051,0.054,0.107,0.104,0.152,0.169c0.092,0.134,0.164,0.293,0.205,0.479
			c0.18,0.808,0.443,1.229,0.773,1.658c-0.604-0.013-1.07-0.229-1.301-0.725c-0.311-0.663-0.467-1.059-0.592-1.167L28.557,30.215z"
			/>
		<path fill="#FFFFFF" stroke="#21231E" stroke-width="0.0601" stroke-linejoin="round" d="M26.751,34.066
			c-0.511,0.651-0.718,1.123-0.842,1.652c-0.375-0.476-0.503-0.979-0.265-1.467C26.52,33.248,26.516,33.251,26.751,34.066z"/>
		<path fill="#FFFFFF" stroke="#21231E" stroke-width="0.0601" stroke-linejoin="round" d="M26.609,33.589
			c-0.514,0.654-1.045,1.146-1.169,1.672c-0.372-0.476-0.528-0.979-0.294-1.468L26.609,33.589z"/>
		<path fill="#FFFFFF" stroke="#21231E" stroke-width="0.0601" stroke-linejoin="round" d="M27.542,33.379
			c-0.511,0.653-0.716,1.126-0.842,1.652c-0.373-0.477-0.501-0.979-0.265-1.469L27.542,33.379z"/>
	</g>
	<g id="b_17_">
		<g>
			<path fill="#EDB92E" stroke="#21231E" stroke-width="0.0601" stroke-linejoin="round" d="M20.07,36.504
				c-0.018,0-0.036,0.042-0.041,0.063c-0.06,0.182-0.295,0.48-0.477,0.662c-0.282,0.28-0.204,0.722-0.022,0.961
				c0.197,0.265,0.313,0.552,0.354,0.763c0.032,0.151,0.072,0.459,0.035,0.938c-0.019,0.238-0.162,0.356-0.295,0.465
				c-0.066,0.052,0.048,0.197,0.265,0.36c0.024,0.017,0.085,0.054,0.121,0.179c0.005,0.02,0.113,0.02,0.12,0
				c0.033-0.125,0.096-0.166,0.118-0.179c0.217-0.163,0.331-0.31,0.265-0.36c-0.131-0.107-0.277-0.227-0.295-0.465
				c-0.034-0.479,0.006-0.785,0.036-0.938c0.04-0.211,0.156-0.498,0.354-0.763c0.179-0.239,0.258-0.681-0.025-0.961
				c-0.179-0.182-0.415-0.48-0.476-0.662C20.107,36.549,20.088,36.504,20.07,36.504z"/>
			<path id="c_7_" fill="#EDB92E" stroke="#21231E" stroke-width="0.0601" stroke-linejoin="round" d="M19.307,40.303
				c0.481,0.36,0.925-0.504,0.493-1.658c-0.324-0.863-1.882-0.504-0.998,0.633c0.043,0.054,0.104,0.031,0.091-0.029
				c-0.047-0.242,0.083-0.379,0.338-0.331c0.631,0.121,0.653,1.323-0.037,1.052C19.066,39.955,19.186,40.214,19.307,40.303"/>
			<g transform="scale(-1,1)">
				<path id="c_6_" fill="#EDB92E" stroke="#21231E" stroke-width="0.0601" stroke-linejoin="round" d="M-20.798,40.303
					c-0.119-0.089-0.241-0.348-0.11-0.335c0.689,0.271,0.665-0.931,0.035-1.052c-0.253-0.048-0.386,0.089-0.338,0.331
					c0.013,0.062-0.05,0.083-0.089,0.028c-0.884-1.135,0.673-1.496,0.995-0.631C-19.871,39.799-20.316,40.663-20.798,40.303"/>
			</g>
			<path fill="#EDB92E" stroke="#21231E" stroke-width="0.0601" stroke-linejoin="round" d="M20.431,39.361
				c0.117,0,0.211,0.097,0.211,0.211c0,0.115-0.094,0.211-0.211,0.211h-0.719c-0.116,0-0.211-0.096-0.211-0.211
				c0-0.114,0.095-0.211,0.211-0.211H20.431z"/>
			<path fill="#EDB92E" stroke="#21231E" stroke-width="0.0601" stroke-linejoin="round" d="M19.705,33.98
				c-0.303,0.66-0.663,1.264-1.023,1.803c-0.179,0.061-0.302,0.15-0.421,0.186c-0.118,0.038-0.962,0.025-0.992-0.035
				c-0.271-0.207-0.688-0.029-0.51,0.211c-0.121,0.121,0.119,0.442,0.3,0.299c0.18-0.144,0.782,0,0.963-0.061
				c-0.059,0.184-0.66,0.284-1.023,0.305c-0.36,0.016-0.3,0.359-0.179,0.66l0.121,0.061c0.118,0.238,0.469,0.169,0.479-0.061
				c0.013-0.229,0.843-0.539,0.962-0.722c-0.119,0.36-0.48,0.722-0.66,1.081c-0.179,0.182-0.302,0.182-0.061,0.542l0.421,0.063
				c0.362,0,0.423-0.125,0.362-0.424c-0.061-0.298,0.223-0.843,0.301-0.996c0.073-0.144,0.09-0.293,0.163-0.379
				c0.124-0.17,0.771-0.443,0.92-0.367c0.302,0.156,0.512,0.062,0.542-0.238c-0.059-0.061,0-0.481-0.217-0.518
				c-0.18-0.031-0.265,0.062-0.414,0.18c-0.241,0.193-0.375,0.303-0.445,0.283c-0.191-0.049,0.345-0.307,0.823-0.944
				C20.596,34.27,20.787,33.318,19.705,33.98L19.705,33.98z"/>
			<path fill="#EDB92E" stroke="#21231E" stroke-width="0.0601" stroke-linejoin="round" d="M16.771,36.297
				c-0.243-0.141-0.383-0.134-0.476-0.027c-0.051,0.054-0.118,0.024-0.08-0.064c0.163-0.379,0.417-0.428,0.647-0.248
				c0.064,0.061,0.115,0.111,0.169,0.159C16.991,36.173,16.8,36.252,16.771,36.297L16.771,36.297z"/>
			<path fill="#EDB92E" stroke="#21231E" stroke-width="0.0601" stroke-linejoin="round" d="M20.224,35.959
				c0.255-0.172,0.496-0.207,0.627-0.111c0.073,0.055,0.144,0.017,0.08-0.072c-0.266-0.375-0.576-0.394-0.811-0.184
				c-0.063,0.07-0.113,0.129-0.166,0.186C20.034,35.866,20.213,35.965,20.224,35.959L20.224,35.959z"/>
			<path fill="#EDB92E" stroke="#21231E" stroke-width="0.0601" stroke-linejoin="round" d="M18.206,38.104
				c0.01-0.018-0.057-0.326-0.162-0.426c-0.081,0.064-0.173,0.121-0.259,0.211c-0.255,0.269-0.255,0.66,0.147,1.006
				c0.099,0.088,0.143-0.004,0.102-0.104C17.966,38.625,18.049,38.412,18.206,38.104L18.206,38.104z"/>
			<path fill="#EDB92E" stroke="#21231E" stroke-width="0.0601" stroke-linejoin="round" d="M17.208,37.282
				c-0.239,0.1-0.318,0.224-0.311,0.387c0.005,0.092-0.053,0.124-0.088,0.021c-0.29-0.676,0.011-0.804,0.446-0.78
				C17.281,37.027,17.22,37.275,17.208,37.282z"/>
		</g>
		<path fill="none" stroke="#21231E" stroke-width="0.0601" stroke-linecap="round" d="M20.413,34.457
			c-0.114-0.107-0.235-0.225-0.351-0.09c-0.111,0.131-0.051,0.256,0.115,0.431c-0.107-0.069-0.239-0.313-0.36-0.144
			c-0.121,0.169-0.013,0.313,0.119,0.453c-0.139-0.115-0.247-0.291-0.368-0.146c-0.118,0.146,0,0.29,0.108,0.398
			c-0.121-0.096-0.239-0.186-0.313-0.104c-0.106,0.125-0.02,0.211,0.098,0.316c-0.133-0.096-0.222-0.191-0.319-0.083
			c-0.097,0.108,0.03,0.241,0.104,0.286"/>
		<g>
			<path fill="#FFFFFF" stroke="#21231E" stroke-width="0.0601" stroke-linejoin="round" d="M20.392,26.346
				c0.009,0.521-0.083,4.004-0.11,4.494c-0.03,0.488-0.244,0.823-0.477,1.016c-0.214-0.295-0.34-0.688-0.37-1.151
				c-0.017-0.239,0.03-3.531,0.046-4.211L20.392,26.346z"/>
			<path fill="#FFFFFF" stroke="#21231E" stroke-width="0.0601" stroke-linejoin="round" d="M18.13,25.494l-0.146,4.783
				c-0.045,0.426,0.507,2.951,0.809,3.449c0.746-0.319,0.904-2.035,0.764-3.703c-0.141-1.672,0.025-3.113,0.137-3.414L18.13,25.494z
				"/>
			<path fill="#FFFFFF" stroke="#21231E" stroke-width="0.0601" stroke-linejoin="round" d="M17.245,26.279l0.101,4.783
				c-0.022,0.424,0.66,2.918,0.986,3.396c0.758-0.59,0.604-2.992,0.49-3.723c-0.231-1.45-0.191-3.129-0.112-3.402L17.245,26.279z"/>
			<path fill="#FFFFFF" stroke="#21231E" stroke-width="0.0601" stroke-linejoin="round" d="M16.586,27.411l1.259-0.032
				c-0.107,0.521-0.024,2.141,0.194,3.378c0.204,1.158,0.488,4.166-0.72,4.888c-0.746-1.586-0.175-3.127-0.555-4.504L16.586,27.411z
				"/>
			<path fill="#FFFFFF" stroke="#21231E" stroke-width="0.0601" stroke-linejoin="round" d="M21.393,25.469l-0.245,4.487
				c-0.043,0.487-0.271,0.813-0.509,0.999c-0.203-0.301-0.317-0.695-0.334-1.164c-0.008-0.236,0.136-3.523,0.174-4.201
				L21.393,25.469z"/>
			<path fill="#FFFFFF" stroke="#21231E" stroke-width="0.0601" stroke-linejoin="round" d="M19.16,22.634
				c-0.033,1.122-0.051,3.554-0.045,3.761c0.017,0.465,0.198,1.063,0.402,1.361c0.239-0.186,0.466-0.514,0.51-1.002
				c0.035-0.4,0.048-2.373,0.055-3.361L19.16,22.634z"/>
			<path fill="#FFFFFF" stroke="#21231E" stroke-width="0.0601" stroke-linejoin="round" d="M20.057,23.354
				c-0.022,1.209-0.01,3.112-0.004,3.266c0.018,0.469,0.131,0.864,0.335,1.164c0.236-0.185,0.485-0.522,0.529-1.011
				c0.029-0.301,0.11-1.592,0.118-2.581L20.057,23.354z"/>
			<path fill="#FFFFFF" stroke="#21231E" stroke-width="0.0601" stroke-linejoin="round" d="M19.284,22.531L18.43,21.3
				c-0.172,0.609-0.383,4.976-0.137,5.333c0.018,0.467,0.185,0.861,0.389,1.161c0.237-0.185,0.59-0.515,0.488-1.011
				C19.067,26.288,19.18,23.042,19.284,22.531z"/>
			<path fill="#FFFFFF" stroke="#21231E" stroke-width="0.0601" stroke-linejoin="round" d="M17.53,25.28l-0.058,1.369
				c0.017,0.47,0.131,0.867,0.335,1.164c0.236-0.183,0.539-0.511,0.507-0.998c-0.119-1.892,0.09-3.674,0.329-5.384l-0.75-0.459
				L17.53,25.28z"/>
			<path fill="#FFFFFF" stroke="#21231E" stroke-width="0.0601" stroke-linejoin="round" d="M16.674,26.516l0.234,0.881
				c0.013,0.469,0.305,0.854,0.507,1.15c0.236-0.186,0.45-0.484,0.39-0.973c-0.345-2.791-0.222-4.641,0.365-6.915
				C16.845,21.562,16.229,23.473,16.674,26.516L16.674,26.516z"/>
			<path fill="#FFFFFF" stroke="#21231E" stroke-width="0.0601" stroke-linejoin="round" d="M16.742,27.383l-1.217-0.404
				c-0.154,1.215,0.083,2.742,0.412,4.756c0.28,1.729,0.132,3.097-0.083,3.974c1.298-0.176,1.845-1.851,1.194-4.995
				C16.88,29.891,16.711,28.837,16.742,27.383L16.742,27.383z"/>
			<path fill="#FFFFFF" stroke="#21231E" stroke-width="0.0601" stroke-linejoin="round" d="M17.213,21.763
				c-0.298,1.461-0.496,3.18-0.27,5.064c0.083,0.702,0.231,1.272,0.45,1.717c-0.878-0.101-1.438-0.954-1.365-2.446l0.196-4.166
				L17.213,21.763z"/>
			<path fill="#FFFFFF" stroke="#21231E" stroke-width="0.0601" stroke-linejoin="round" d="M16.576,21.954
				c-0.063,0.376-0.288,0.823-0.334,1.305c-0.157,1.601-0.157,3.601,0.325,4.88c-0.877-0.1-1.178-0.89-1.206-2.383
				c-0.022-1.234-0.027-2.688,0.285-4.369L16.576,21.954z"/>
			<path fill="#FFFFFF" stroke="#21231E" stroke-width="0.0601" stroke-linejoin="round" d="M18.396,21.597l-0.806-0.096
				c-0.151,0.766-0.265,1.305-0.292,1.576c-0.054,0.535,0.107,1.023,0.292,1.387c0.3-0.179,0.438-0.57,0.562-1.119L18.396,21.597z"
				/>
			<path fill="#FFFFFF" stroke="#21231E" stroke-width="0.0601" stroke-linejoin="round" d="M20.491,23.316l-0.716,0.006
				c-0.025,0.66-0.043,1.106-0.031,1.337c0.021,0.456,0.137,0.842,0.331,1.129c0.217-0.183,0.425-0.501,0.456-0.979
				C20.565,24.333,20.496,23.823,20.491,23.316L20.491,23.316z"/>
			<path fill="#FFFFFF" stroke="#21231E" stroke-width="0.0601" stroke-linejoin="round" d="M20.548,23.689
				c-0.002,0.656-0.004,1.104,0.016,1.336c0.038,0.453,0.166,0.836,0.37,1.12c0.214-0.19,0.408-0.518,0.421-0.995L20.548,23.689z"/>
			<path fill="#FFFFFF" stroke="#21231E" stroke-width="0.0601" stroke-linejoin="round" d="M19.762,22.946l-0.717-0.052
				c-0.076,0.654-0.131,1.098-0.137,1.33c-0.016,0.453,0.067,0.849,0.237,1.151c0.234-0.162,0.464-0.465,0.534-0.938
				C19.752,23.967,19.725,23.453,19.762,22.946z"/>
			<path fill="#FFFFFF" stroke="#21231E" stroke-width="0.0601" stroke-linejoin="round" d="M18.307,21.849
				c-0.134,0.529-0.313,2.274,0.008,3.015c0.262-0.179,0.523-0.511,0.611-1.037c0.091-0.526,0.113-1.088,0.167-1.652L18.307,21.849z
				"/>
			<path fill="#FFFFFF" stroke="#21231E" stroke-width="0.0601" stroke-linejoin="round" d="M21.115,32.316l-1.187,0.608
				c-0.345,0.757-0.665,1.158-1.075,1.513c0.594,0.107,1.098-0.006,1.421-0.443c0.438-0.587,0.672-0.944,0.816-1.023L21.115,32.316z
				"/>
			<path fill="#FFFFFF" stroke="#21231E" stroke-width="0.0601" stroke-linejoin="round" d="M20.866,32.76
				c-0.29,0.594-0.487,0.992-0.57,1.209c-0.163,0.424-0.206,0.826-0.131,1.174c0.287-0.072,0.618-0.276,0.845-0.701L20.866,32.76z"
				/>
			<path fill="#FFFFFF" stroke="#21231E" stroke-width="0.0601" stroke-linejoin="round" d="M21.017,32.941
				c-0.138,0.645-0.229,1.082-0.257,1.312c-0.053,0.452,0.003,0.854,0.159,1.17c0.262-0.14,0.533-0.421,0.649-0.883
				c0.114-0.47,0.127-0.979,0.21-1.483L21.017,32.941z"/>
			<path fill="#FFFFFF" stroke="#21231E" stroke-width="0.0601" stroke-linejoin="round" d="M22.566,33.334
				c-0.398,0.729-0.529,1.225-0.567,1.768c-0.443-0.412-0.651-0.888-0.496-1.406c0.209-0.701,0.413-1.51,0.388-1.676L22.566,33.334z
				"/>
			<path fill="#FFFFFF" stroke="#21231E" stroke-width="0.0601" stroke-linejoin="round" d="M21.369,31.449
				c-0.257,0.609-0.433,1.021-0.503,1.236c-0.134,0.438-0.157,0.84-0.063,1.182c0.284-0.09,0.645-0.274,0.844-0.709
				c0.201-0.438,0.272-0.977,0.448-1.454L21.369,31.449z"/>
			<path fill="#FFFFFF" stroke="#21231E" stroke-width="0.0601" stroke-linejoin="round" d="M21.442,30.215
				c-0.168-0.045-0.388,0.346-0.604,0.571c-0.048,0.054-0.105,0.104-0.15,0.169c-0.092,0.134-0.165,0.293-0.205,0.479
				c-0.182,0.808-0.445,1.229-0.777,1.658c0.606-0.013,1.073-0.229,1.305-0.725c0.308-0.663,0.463-1.059,0.59-1.167L21.442,30.215z"
				/>
			<path fill="#FFFFFF" stroke="#21231E" stroke-width="0.0601" stroke-linejoin="round" d="M23.249,34.066
				c0.512,0.651,0.718,1.123,0.844,1.652c0.375-0.476,0.501-0.979,0.265-1.467C23.481,33.248,23.486,33.251,23.249,34.066z"/>
			<path fill="#FFFFFF" stroke="#21231E" stroke-width="0.0601" stroke-linejoin="round" d="M23.39,33.589
				c0.512,0.654,1.044,1.146,1.167,1.672c0.373-0.476,0.529-0.979,0.295-1.468L23.39,33.589z"/>
			<path fill="#FFFFFF" stroke="#21231E" stroke-width="0.0601" stroke-linejoin="round" d="M22.456,33.379
				c0.513,0.653,0.717,1.126,0.843,1.652c0.371-0.477,0.502-0.979,0.265-1.469L22.456,33.379z"/>
		</g>
	</g>
	<path fill="#FFFFFF" stroke="#21231E" stroke-width="0.0601" stroke-linejoin="round" d="M25,21.447
		c-0.115-1.292-0.35-2.194-0.909-3.098c0.259,0.032,0.529-0.021,0.403-0.647c-0.368-0.083-0.505,0.055-1.525-0.434
		c-0.838-0.389-2.064-0.535-1.986-0.114c0.158,0.842,0.71,1.441,1.281,1.869c0.27,0.673,0.931,1.948,0.475,2.653
		c-0.456,0.701-0.835,1.04-1.293,1.327c0.104,0.034,0.198,0.066,0.295,0.082c-0.073,0.096-0.66,0.278-0.733,0.23
		c-0.469-0.313-0.902-1.078-1.285-1.516c-1.101-1.244-1.678-2.217-1.456-2.982c0.247-0.845,1.263-1.772-0.04-1.607
		c-1.305,0.16-2.401,1.987-2.724,4.099c-0.121,0.781-0.204,1.468-0.297,2.013c0.711-0.252,1.03-0.51,1.214-0.823
		c-0.083,0.304-0.148,0.584-0.19,0.849c0.583-0.102,0.986-0.396,1.155-0.909c0.059-0.204,0.137-0.382,0.217-0.532
		c0.177,0.063,0.408,0.058,0.688-0.01c0.108,0.252,0.909,1.148,1.343,1.806c0.479,0.739,1.212,1.305,1.455,1.339h7.826
		c0.238-0.034,0.975-0.6,1.455-1.339c0.434-0.657,1.232-1.554,1.341-1.806c0.282,0.067,0.513,0.073,0.69,0.01
		c0.078,0.15,0.156,0.328,0.217,0.532c0.169,0.514,0.57,0.808,1.154,0.909c-0.041-0.265-0.108-0.545-0.191-0.849
		c0.186,0.313,0.505,0.574,1.213,0.823c-0.09-0.545-0.173-1.231-0.294-2.013c-0.325-2.108-1.418-3.938-2.724-4.099
		c-1.305-0.165-0.291,0.763-0.041,1.607c0.223,0.766-0.354,1.738-1.455,2.982c-0.385,0.44-0.818,1.203-1.287,1.516
		c-0.071,0.048-0.66-0.135-0.733-0.23c0.099-0.016,0.191-0.048,0.296-0.082c-0.457-0.291-0.836-0.626-1.291-1.327
		c-0.457-0.705,0.203-1.978,0.475-2.653c0.57-0.428,1.123-1.027,1.279-1.869c0.08-0.421-1.148-0.274-1.984,0.114
		c-1.021,0.488-1.159,0.348-1.527,0.434c-0.126,0.626,0.146,0.68,0.402,0.647C25.351,19.253,25.115,20.155,25,21.447z"/>
	<path fill="#EDB92E" stroke="#21231E" stroke-width="0.0601" stroke-linejoin="round" d="M27.43,19.578l1.147,0.169
		c0.89,0.041,1.403-0.242,1.521-0.813c-0.328,0.398-0.736,0.597-1.189,0.488c-0.602-0.144-0.98-0.277-1.12-0.239L27.43,19.578z"/>
	<path fill="#EDB92E" stroke="#21231E" stroke-width="0.0601" stroke-linejoin="round" d="M29.58,17.256
		c0.997,0.108,0.949,0.753,0.018,1.685c-0.19,0.188-0.229,0.182-0.275-0.01c-0.086-0.338-0.428-0.501-0.605-0.265
		c-0.121,0.152-0.104,0.258-0.523,0.197c-0.534,0.45-0.963,0.769-0.271,0.74c0.275-0.013,0.545,0.166,0.942,0.149
		c-0.113,0.233-0.139,0.265-0.203,0.278c-0.396,0.061-0.794-0.163-1.189-0.093c-0.861,0.156,1.375-2.325,1.351-2.421
		C28.764,17.275,29.359,16.819,29.58,17.256z"/>
	<path fill="#21231E" d="M28.154,18.044l0.134-0.131c0.063-0.08,0.024-0.191-0.111-0.325c-0.103,0.045-0.184,0.076-0.265,0.111
		C27.966,17.881,28.048,17.999,28.154,18.044L28.154,18.044z"/>
	<circle fill="#21231E" cx="29.688" cy="17.75" r="0.086"/>
	<path fill="none" stroke="#21231E" stroke-width="0.0601" stroke-linecap="round" stroke-linejoin="round" d="M33.88,28.011
		c-0.05,1.081-0.122,1.923-0.332,2.826c-0.211,0.899-0.239,1.502-0.271,2.401"/>
	<path fill="none" stroke="#21231E" stroke-width="0.0601" stroke-linecap="round" stroke-linejoin="round" d="M33.436,28.139
		c0.506-1.343,0.491-3.416,0.316-4.788c-0.173-1.368-1.033-3.167-1.346-3.371"/>
	<path fill="none" stroke="#21231E" stroke-width="0.0601" stroke-linecap="round" stroke-linejoin="round" d="M29.58,17.256
		c-0.04,0.201-0.207,0.415-0.506,0.642"/>
	<path fill="none" stroke="#21231E" stroke-width="0.0601" stroke-linecap="round" stroke-linejoin="round" d="M26.898,22.63
		c0.43,0.482,0.979,0.609,1.647,0.38"/>
	<path fill="none" stroke="#21231E" stroke-width="0.0601" stroke-linecap="round" stroke-linejoin="round" d="M26.827,22.264
		c0,0.182,0.096,0.51,0.282,0.992c-0.399-0.093-0.698-0.274-0.896-0.549"/>
	<path fill="none" stroke="#21231E" stroke-width="0.0601" stroke-linecap="round" stroke-linejoin="round" d="M26.295,22.216
		c-0.051,0.414-0.163,0.733-0.332,0.963c-0.223-0.166-0.378-0.405-0.469-0.721"/>
	<path fill="none" stroke="#21231E" stroke-width="0.0601" stroke-linecap="round" stroke-linejoin="round" d="M27.574,17.846
		c0.096,0.188,0.27,0.428,0.479,0.3c0.303-0.179,0.355-0.408,0.493-0.618"/>
	<path fill="none" stroke="#21231E" stroke-width="0.0601" stroke-linecap="round" stroke-linejoin="round" d="M27.29,17.881
		c0.124,0.01,0.265-0.044,0.571-0.156c0.308-0.108,0.638-0.239,0.949-0.214"/>
	<path fill="none" stroke="#21231E" stroke-width="0.0601" stroke-linecap="round" stroke-linejoin="round" d="M26.491,18.232
		c-0.156,0.048-0.351,0.089-0.582,0.117"/>
	<g>
		<path fill="#EDB92E" stroke="#21231E" stroke-width="0.0601" stroke-linejoin="round" d="M22.569,19.578l-1.147,0.169
			c-0.891,0.041-1.405-0.242-1.521-0.813c0.331,0.398,0.739,0.597,1.19,0.488c0.599-0.144,0.979-0.277,1.118-0.239L22.569,19.578z"
			/>
		<path fill="#EDB92E" stroke="#21231E" stroke-width="0.0601" stroke-linejoin="round" d="M20.42,17.256
			c-0.998,0.108-0.95,0.753-0.02,1.685c0.191,0.188,0.23,0.182,0.278-0.01c0.082-0.338,0.426-0.501,0.605-0.265
			c0.121,0.152,0.103,0.258,0.523,0.197c0.534,0.45,0.963,0.769,0.271,0.74c-0.277-0.013-0.548,0.166-0.943,0.149
			c0.113,0.233,0.137,0.265,0.204,0.278c0.396,0.061,0.792-0.163,1.189-0.093c0.861,0.156-1.375-2.325-1.351-2.421
			C21.236,17.275,20.642,16.819,20.42,17.256z"/>
	</g>
	<g>
		<path fill="#21231E" d="M21.844,18.044l-0.132-0.131c-0.064-0.08-0.025-0.191,0.111-0.325c0.101,0.045,0.182,0.076,0.265,0.111
			C22.034,17.881,21.954,17.999,21.844,18.044L21.844,18.044z"/>
		<circle fill="#21231E" cx="20.312" cy="17.75" r="0.086"/>
	</g>
	<g>
		<path fill="none" stroke="#21231E" stroke-width="0.0601" stroke-linecap="round" stroke-linejoin="round" d="M16.12,28.011
			c0.048,1.081,0.122,1.923,0.329,2.826c0.21,0.899,0.24,1.502,0.271,2.401"/>
		<path fill="none" stroke="#21231E" stroke-width="0.0601" stroke-linecap="round" stroke-linejoin="round" d="M16.567,28.139
			c-0.506-1.343-0.495-3.416-0.319-4.788c0.172-1.368,1.035-3.167,1.346-3.371"/>
		<path fill="none" stroke="#21231E" stroke-width="0.0601" stroke-linecap="round" stroke-linejoin="round" d="M20.42,17.256
			c0.038,0.201,0.207,0.415,0.504,0.642"/>
		<path fill="none" stroke="#21231E" stroke-width="0.0601" stroke-linecap="round" stroke-linejoin="round" d="M23.103,22.63
			c-0.431,0.482-0.979,0.609-1.649,0.38"/>
		<path fill="none" stroke="#21231E" stroke-width="0.0601" stroke-linecap="round" stroke-linejoin="round" d="M23.173,22.264
			c0,0.182-0.095,0.51-0.283,0.992c0.402-0.093,0.7-0.274,0.896-0.549"/>
		<path fill="none" stroke="#21231E" stroke-width="0.0601" stroke-linecap="round" stroke-linejoin="round" d="M23.705,22.216
			c0.053,0.414,0.163,0.733,0.33,0.963c0.225-0.166,0.381-0.405,0.471-0.721"/>
		<path fill="none" stroke="#21231E" stroke-width="0.0601" stroke-linecap="round" stroke-linejoin="round" d="M22.426,17.846
			c-0.094,0.188-0.268,0.428-0.479,0.3c-0.303-0.179-0.355-0.408-0.494-0.618"/>
		<path fill="none" stroke="#21231E" stroke-width="0.0601" stroke-linecap="round" stroke-linejoin="round" d="M22.71,17.881
			c-0.128,0.01-0.265-0.044-0.572-0.156c-0.308-0.108-0.638-0.239-0.951-0.214"/>
		<path fill="none" stroke="#21231E" stroke-width="0.0601" stroke-linecap="round" stroke-linejoin="round" d="M23.511,18.232
			c0.156,0.048,0.351,0.089,0.58,0.117"/>
	</g>
	<path fill="#FFFFFF" stroke="#21231E" stroke-width="0.0601" stroke-linejoin="round" d="M24.464,22.12
		c0.035,0.469,0.214,0.915,0.536,1.333c0.328-0.421,0.507-0.864,0.536-1.333"/>
	<path fill="#C6363C" stroke="#21231E" stroke-width="0.1502" d="M29.057,23.521v6.522c0,1.167-0.479,2.229-1.201,2.994
		C27.137,33.8,26.081,34.342,25,34.342s-2.136-0.542-2.856-1.305c-0.719-0.766-1.2-1.827-1.2-2.994v-6.522H29.057z"/>
	<path fill="#FFFFFF" stroke="#21231E" stroke-width="0.0601" stroke-linecap="round" d="M29.027,27.52v1.686h-3.217v4.988
		c-0.542,0.121-1.079,0.121-1.622,0v-4.988h-3.218V27.52h3.218v-3.968h1.622v3.968H29.027z"/>
	<path id="e_34_" fill="#FFFFFF" stroke="#21231E" stroke-width="0.0601" stroke-linejoin="round" d="M26.381,29.893
		c0.48-0.179,1.805-0.6,1.805,0.453c0,0.504-0.612,0.836-0.783,0.389c-0.084-0.223,0.007-0.365,0.134-0.414
		c0.125-0.047,0.266,0.062,0.229,0.221c0.526-0.28-0.5-0.857-0.934-0.1c-0.118,0.211,0.223,0.457,0.223,0.625
		c0,0.17-0.341,0.416-0.223,0.625c0.434,0.76,1.464,0.18,0.934-0.102c0.036,0.159-0.104,0.271-0.229,0.221
		c-0.127-0.049-0.218-0.191-0.134-0.416c0.171-0.442,0.783-0.113,0.783,0.394c0,1.053-1.326,0.632-1.805,0.45V29.893z"/>
	<path id="e_33_" fill="#FFFFFF" stroke="#21231E" stroke-width="0.0601" stroke-linejoin="round" d="M23.62,26.824
		c-0.478,0.182-1.803,0.603-1.803-0.449c0-0.504,0.612-0.836,0.782-0.391c0.085,0.222-0.006,0.367-0.132,0.416
		c-0.126,0.048-0.265-0.062-0.229-0.225c-0.53,0.284,0.499,0.861,0.935,0.104c0.116-0.211-0.226-0.456-0.226-0.625
		c0-0.17,0.342-0.415,0.226-0.626c-0.435-0.756-1.463-0.179-0.935,0.103c-0.035-0.159,0.104-0.268,0.229-0.22
		c0.126,0.044,0.217,0.191,0.132,0.414c-0.17,0.442-0.782,0.115-0.782-0.393c0-1.049,1.323-0.628,1.803-0.449V26.824z"/>
	<path id="e_32_" fill="#FFFFFF" stroke="#21231E" stroke-width="0.0601" stroke-linejoin="round" d="M26.381,24.483
		c0.48-0.179,1.805-0.6,1.805,0.449c0,0.508-0.612,0.835-0.783,0.393c-0.084-0.223,0.007-0.37,0.134-0.414
		c0.125-0.048,0.266,0.061,0.229,0.22c0.526-0.281-0.5-0.858-0.934-0.103c-0.118,0.211,0.223,0.456,0.223,0.626
		c0,0.169-0.341,0.414-0.223,0.625c0.434,0.759,1.464,0.182,0.934-0.104c0.036,0.163-0.104,0.271-0.229,0.225
		c-0.127-0.049-0.218-0.194-0.134-0.416c0.171-0.445,0.783-0.113,0.783,0.391c0,1.052-1.326,0.631-1.805,0.449V24.483z"/>
	<path id="e_17_" fill="#FFFFFF" stroke="#21231E" stroke-width="0.0601" stroke-linejoin="round" d="M23.62,32.236
		c-0.478,0.183-1.803,0.604-1.803-0.449c0-0.508,0.612-0.836,0.782-0.393c0.085,0.224-0.006,0.366-0.132,0.414
		c-0.126,0.051-0.265-0.061-0.229-0.22c-0.53,0.28,0.499,0.86,0.935,0.103c0.116-0.211-0.226-0.457-0.226-0.625
		c0-0.17,0.342-0.416,0.226-0.625c-0.435-0.76-1.463-0.183-0.935,0.099c-0.035-0.159,0.104-0.269,0.229-0.22
		c0.125,0.048,0.217,0.19,0.132,0.414c-0.17,0.447-0.782,0.115-0.782-0.389c0-1.054,1.323-0.633,1.803-0.453V32.236z"/>
</g>
<g>
	<g>
		<g>
			<g>
				<defs>
					<circle id="SVGID_1_" cx="25" cy="25" r="24.5"/>
				</defs>
				<clipPath id="SVGID_2_">
					<use xlink:href="#SVGID_1_"  overflow="visible"/>
				</clipPath>
				
					<radialGradient id="circle50_2_" cx="750.7598" cy="1657.9609" r="27.4688" gradientTransform="matrix(1 0 0 1 -725.7598 -1632.9609)" gradientUnits="userSpaceOnUse">
					<stop  offset="0" style="stop-color:#000000;stop-opacity:0"/>
					<stop  offset="0.7576" style="stop-color:#000000;stop-opacity:0"/>
					<stop  offset="1" style="stop-color:#000000"/>
				</radialGradient>
				
					<circle id="circle50_1_" opacity="0.4" clip-path="url(#SVGID_2_)" fill="url(#circle50_2_)" enable-background="new    " cx="25" cy="25" r="27.469"/>
			</g>
		</g>
	</g>
	<g>
		<g>
			<g>
				<defs>
					<circle id="SVGID_3_" cx="25" cy="25" r="24.5"/>
				</defs>
				<clipPath id="SVGID_4_">
					<use xlink:href="#SVGID_3_"  overflow="visible"/>
				</clipPath>
				
					<radialGradient id="circle50_3_" cx="750.7598" cy="1657.9609" r="31.6777" gradientTransform="matrix(1 0 0 1 -725.7598 -1632.9609)" gradientUnits="userSpaceOnUse">
					<stop  offset="0" style="stop-color:#000000;stop-opacity:0"/>
					<stop  offset="0.5758" style="stop-color:#000000;stop-opacity:0"/>
					<stop  offset="1" style="stop-color:#000000"/>
				</radialGradient>
				
					<circle id="circle50_7_" opacity="0.6" clip-path="url(#SVGID_4_)" fill="url(#circle50_3_)" enable-background="new    " cx="25" cy="25" r="31.678"/>
			</g>
		</g>
	</g>
</g>
<linearGradient id="SVGID_5_" gradientUnits="userSpaceOnUse" x1="750.4824" y1="1663.666" x2="750.4824" y2="1635.6641" gradientTransform="matrix(1 0 0 1 -725.7598 -1632.9609)">
	<stop  offset="0.0727" style="stop-color:#FFFFFF;stop-opacity:0.05"/>
	<stop  offset="0.897" style="stop-color:#FFFFFF;stop-opacity:0.75"/>
	<stop  offset="1" style="stop-color:#FFFFFF;stop-opacity:0.75"/>
</linearGradient>
<ellipse fill="url(#SVGID_5_)" cx="24.723" cy="16.704" rx="17.306" ry="14.001"/>
</svg>
