<svg xmlns="http://www.w3.org/2000/svg" viewBox="0 0 128 128" role="img" aria-label="Serbian Football logo">
  <defs>
    <linearGradient id="shine" x1="0" x2="1">
      <stop offset="0" stop-color="#ffffff" stop-opacity=".9"/>
      <stop offset=".6" stop-color="#ffffff" stop-opacity=".08"/>
      <stop offset="1" stop-color="#ffffff" stop-opacity="0"/>
    </linearGradient>
  </defs>
  <circle cx="64" cy="64" r="58" fill="#ffffff" stroke="#153a78" stroke-width="6"/>
  <path d="M18 42c10-20 33-30 58-26 16 2 28 9 37 18-10-5-24-7-38-4-17 4-29 14-38 29-3 5-8 8-14 9-6 1-12 1-17-1 3-9 7-17 12-25z" fill="#d61f26"/>
  <path d="M16 71c7 3 16 3 24-1 7-3 11-8 15-13 8-11 18-18 30-21 18-4 35 0 47 10-8 12-20 21-36 25-11 3-20 3-29 2-7-1-14 1-21 5-7 4-14 9-23 11-4-5-6-11-7-18z" fill="#153a78"/>
  <path d="M30 92c8-3 15-8 22-12 8-5 17-6 26-5 14 1 27 0 40-5-8 14-21 25-39 31-25 8-49 4-66-9 6 1 11 0 17-2z" fill="#ffffff"/>
  <path d="M33 30l14 8-3 16 13-9 14 7-4-15 13-9-16-1-6-14-6 14-15 3z" fill="#ffffff" opacity=".96" stroke="#153a78" stroke-width="2"/>
  <path d="M20 24c12-10 27-16 44-16 21 0 39 8 52 22" fill="none" stroke="url(#shine)" stroke-width="9" stroke-linecap="round"/>
</svg>
