<svg xmlns="http://www.w3.org/2000/svg" viewBox="0 0 160 160" role="img" aria-label="Serbian Football logo">
  <defs>
    <linearGradient id="shine" x1="0" y1="0" x2="1" y2="1">
      <stop offset="0%" stop-color="#ffffff" stop-opacity="0.95"></stop>
      <stop offset="55%" stop-color="#ffffff" stop-opacity="0.15"></stop>
      <stop offset="100%" stop-color="#ffffff" stop-opacity="0"></stop>
    </linearGradient>
    <clipPath id="clipBall">
      <circle cx="80" cy="80" r="64"></circle>
    </clipPath>
  </defs>

  <circle cx="80" cy="80" r="70" fill="#ffffff" stroke="#153a78" stroke-width="8"></circle>
  <g clip-path="url(#clipBall)">
    <rect x="0" y="0" width="160" height="53.5" fill="#d61f26"></rect>
    <rect x="0" y="53.5" width="160" height="53.5" fill="#153a78"></rect>
    <rect x="0" y="107" width="160" height="53" fill="#ffffff"></rect>

    <path d="M-10 92 C 20 74, 44 52, 66 32 C 93 8, 122 9, 170 30 L 170 58 C 125 36, 96 38, 70 61 C 46 83, 21 102, -10 114 Z" fill="#ffffff" opacity="0.96"></path>
    <path d="M-10 88 C 22 71, 44 52, 66 33 C 93 10, 121 10, 170 31 L 170 48 C 122 28, 96 30, 72 52 C 48 73, 22 92, -10 103 Z" fill="#d61f26"></path>

    <path d="M-10 103 C 22 87, 47 66, 71 45 C 95 25, 121 26, 170 47 L 170 77 C 126 57, 98 58, 75 78 C 50 100, 24 118, -10 129 Z" fill="#153a78"></path>

    <path d="M53 37 L61 57 L83 58 L66 72 L72 93 L53 81 L34 93 L40 72 L23 58 L45 57 Z" fill="#ffffff" stroke="#153a78" stroke-width="2.5"></path>
  </g>

  <circle cx="80" cy="80" r="64" fill="none" stroke="#153a78" stroke-width="3"></circle>
  <path d="M30 28 C 53 14, 87 10, 118 20 C 132 25, 144 33, 152 42" fill="none" stroke="url(#shine)" stroke-width="10" stroke-linecap="round"></path>
</svg>